<svg id="Layer_2" data-name="Layer 2" xmlns="http://www.w3.org/2000/svg" viewBox="0 0 506.33 497.55"><defs><style>.cls-1{fill:#bf6539;}.cls-2{fill:#2c3f2a;}.cls-3{fill:#2c2f42;}.cls-4,.cls-5{fill:#b7b7b7;}.cls-5{opacity:0.4;}</style></defs><path class="cls-1" d="M481.79,14.48l.7.77.74-.69.87-2.17.59,2h.73l.71.19.44,1.82,1.11-2.21.64.54,1.07-1.35v3.09l1.12-1.39.7.24.4,1.11,1-.65,0,2,.93-.42,1.16-.88,1-.28-.6,2.88.65.25,1.77-1.76-.94,3.07,1-.39,2.65-2.79-2,4.22,1.08-.35-.13,1.33,1-.21.77.15,2.39-1.68.65.41.66.42.32.75-1.76,2.73.15.8,3-1.75L505,26.47l3-1.5.81.35-1.88,2.32-.13.95,1.45-.11.17.76-.07.87.61.48,2-.22L510,31.68l1.14.27,1.66.08L509,34.44l3.89-.78-2.08,1.57-.94,1.07-.15.76,4.1-.46-2.58,1.46-.34.8,2.5.18-.21.8L510.59,41l4.22.1-3.1,1.13,1.78.54-1,.8.35.7L513,45l-.86.73,1.6.71.15.72.86.72-3,.72,2.51.72-1,.71.8.72-1.91.72.8.72,1.14.72-1.89.71-1.19.72.1.72.66.72-.39.71,2.26.72-.72.72-2,.71,2.18.72-.54.71.64.72.43.71-2.41.72,1.35.72,0,.71,1.78.72.2.72-2.31.71,2.72.72.21.72-3.51.71.6.72,1,.72-1,.72,1.56.72-1.24.72.15.72L511.2,73l1.09.72-.23.72.11.72.53.71-1,.72,2.23.72L514,78l-2.62.72,4.24.72-.49.71-3.56.72,2.19.72-2.77.71,2.13.72-1.63.72,2.29.71-.81.72.46.72-.23.71-1.85.72-.64.71,4.83.72-2.11.71-1.11.72-.38.71-.31.72,2.3.72-3.15.71.27.72,4.09.71-1.16.72-2.09.71,2,.72-.32.71-2,.72-.69.71,2.89.72-1.05.71,1.92.72-2.88.71.39.72-.19.71-.55.72,0,.71,1.93.72-1.07.71-1.19.72,1,.72-.83.71.37.72,2,.71,0,.72v.72l1.68.72.3.71-2.26.72-2.36.72,4,.72.67.71L514,116l1.3.72-1.71.72,1.75.72-.92.72-2.36.72-.35.72-.55.72.21.73,2.76.72,1.06.72-3.84.72,2.17.72-1.6.72-.79.72,3.06.71-2.94.72,2.72.72-1.38.72-.2.72-.7.72-1.05.72,1.32.71,1.24.72,1.09.72-2.84.72,3.77.71.12.72,0,.72-1.93.72-2.06.72.57.71.46.72-1.69.72,3.64.72-3.63.72.72.71,1.73.72-1.65.72,3.78.72-2.21.72.82.72-2.54.72,2.71.72-3.3.72,3,.72.59.72-3.54.72,1,.72.47.73,1.86.72-1.44.72,1.91.72-.7.72.44.72-3.48.72,1.84.72.31.72-1.57.72,1.92.72.86.72-2.25.72,3,.72-4.14.72,1.31.72-.65.72,4.15.72-.33.72-1.58.72-2.86.72,1.38.72-.34.72,3.54.72-1.25.72-1,.72.76.73-3.18.72,3.1.72-1.26.72-1.79.72,1.34.72.42.72,1.14.72,1.7.73-4.68.72.39.72,1.71.72,1.29.72-.35.72L512,180l-.08.72-.36.72,2.26.73-2,.72,2.16.72-.19.72,1.38.72-3.17.73.8.72-2.11.71,4.68.72-3.74.72,1.14.72.2.72.77.72-2.49.72,3.24.72-1,.73.47.72-2.75.72.31.72,1.25.72-.76.72,2.15.72.87.72.18.72-2,.72,1.73.72-4,.71,3.26.72-1.17.73-.79.72-.67.72,1.61.72-1.92.73,4.31.72-4.29.72,0,.73,2.93.72-2.44.72,1.41.72,1.71.72-1.19.73.81.72-3.06.73,2.87.72-.31.72-2.47.73-.21.72.35.72,2.46.73-1.75.72-1.16.73L514,219l-2.06.73-.35.72,2.31.72-.67.72.17.72,2.23.73-3.88.72-.43.73.52.72.74.73-.33.73.48.72-.87.73,1.76.73.57.73-1.6.72,0,.73,2.7.73-4.31.73,1.15.74,2.08.72-3.17.71,0,.72,4.49.76-2.62.7-1.45.71.08.72,2.26.75-.55.72-1.74.69-.29.72-.35.71,2.48.78,1.27.75-1.44.69-1.11.7-1,.69.13.72,1.61.78,1.75.78-2.3.64-.23.72.73.75-1.67.65,3,.86-.33.71.53.75-3.63.54,3.71.92-2.27.6.19.74.58.75-2.48.58-.22.71,3.29.93,1.2.81-2.22.57-.32.7,2.36.9-3.59.46,0,.73-1.19.63.19.73,2.73.95-.24.7-.29.71-.34.69-2.07.54,3.57,1.05-1.91.55-1,.63.67.79.3.75-2.38.49,4.27,1.17-3.39.36-.86.64,1.83.92,1.33.88-.32.69-3.19.36,2.6,1-1.62.53-1.16.58.16.75-.48.66,1.82,1-1.35.55,1.75,1-.55.66,1.82,1-1,.59-.36.68.85.85-.53.66-2.45.36-1.38.52,2.09,1.05,2.48,1.12-.07.72-.24.7-1.82.44,1.62,1-3.32.18.08.75v.73l-1.05.55,1.09.92-1,.56,1.33,1,.57.84-1.55.45-.91.56,1.62,1,.56.85-.93.55-3.11.13.27.78,2.37,1.21,1.75,1.1-2.94.13.73.89.53.85.46.84-4.3-.19,4.6,1.74-1.41.43-1.13.49-.28.68-.06.73.84.93-2.19.24.36.82,1.7,1.15-.19.7-.7.58.68.91-2.89,0,.17.79,2,1.25-4-.28.69.92,2.66,1.44h-2.81l2.07,1.3-1.46.35-1,.48-1.18.43,1.25,1.09.6.91-1.24.4-.07.73-1.8.23.8,1,2.32,1.43.72,1-2.75-.06,0,.76.37.87.81,1,.58.94-.89.48.35.87-1.32.35.06.77-.39.64.61,1-2.27,0-2.2,0,2.94,1.74.35.88-1,.44-.14.71-3-.28-.8.48-.41.61,4.25,2.27-3.59-.51,2.56,1.68-.07.75-.84.47-1.39.25,1.24,1.23-3-.35,1.49,1.33,1.24,1.24-1.66.15-.85.44.27.88.87,1.12-.28.67-2.72-.31.7,1.06-.27.66-1.36.23-.81.44.35.92,1.74,1.51-1.74.05.05.8-1.46.16,1.89,1.59-1.17.29.8,1.13-1.9-.05.77,1.13H486.4l-.86.4,1.36,1.4-2.57-.38,2.44,1.9-1.1.29-2-.15,1.2,1.35-2.14-.21.44,1,.62,1.09-1.56.05.61,1.08-.82.4L484.7,375l-3.77-1.06,2.86,2.22.43,1-3.21-.8,1.32,1.47-.22.71.2.92-.25.69-1.66,0-1.68-.06-.59.5,1.94,1.84-2.58-.55,1.22,1.47.88,1.3-.89.34-1.33.1-.44.58-1.59-.06.33,1-1.55,0,1.5,1.67.86,1.32-2.94-.85.65,1.2,1.73,1.84-1.39,0,.57,1.17-2.56-.67-.62.47-1.06.2.1.9,2.1,2.12-.56.51-1.42,0,.69,1.28-1.42,0,.24,1-2.29-.6-1.37,0,1.89,2.06-1.36,0,2.19,2.28-4.09-1.8.64,1.28,1.09,1.59-2.45-.77-1,.2-.26.69.41,1.14-.88.27.22,1,.41,1.15-.39.61,1.3,1.79-2.56-.91-1.76-.37.47,1.22,2,2.29-1.17.06-2.12-.66.38,1.17.39,1.19-1.38-.12-1.55-.27-1.12.06,1.85,2.29-.84.27-1.08.08-1.37-.15,0,.92h-1.17l1.94,2.44H454.4l1.09,1.79.2,1.09-3.88-2.2,2.61,3-3-1.53v.93l-.9.19-.13.82,2,2.65-2.19-.9-.37.63-1.77-.56,0,.92,1.26,2-1.44-.29,1.07,1.89-1,.1-1.22-.11-1.18-.08-1.84-.69.75,1.64.81,1.71-.6.43-1.32-.23-1.13-.07,2,2.88-3.57-2.35-.94.09,1.82,2.72L441,436l-2.56-1.46.05,1,1.13,2.1-1.81-.76.87,1.87-.56.47-.27.75-2.1-1.09-.23.79-1.23-.23.06,1.09-.78.21.15,1.2-.27.76-.06,1,.62,1.7-2.51-1.61-.36.66-1.48-.53.64,1.74-.9.09.42,1.54-2.4-1.59-.68.32,1.17,2.38-1.77-.91,1.46,2.75L425,448.42l-.09,1-1-.06-1.17-.26.79,2,.81,2.07L422,451.5l-1-.1-.94,0v1.13l1.62,3.12-1.05-.14-2.31-1.72.18,1.37-1.05-.16.83,2.2.1,1.3-1.93-1.3.4,1.7-.26.85-2.16-1.63,1.08,2.6-2.11-1.58-.13,1-.66.32.59,2-1.9-1.37-1.62-1-.44.61.61,2.08L408,461.58l-1-.14-.27.85-.38.71.77,2.36,0,1.24-1.45-.83-1-.2-1.36-.72.86,2.56-1.64-1.16.81,2.51-.68.3-1.38-.78.61,2.25-1-.21-.27.93-2.24-2.16-1.26-.65,1.68,4-1.07-.34-1.87-1.63L397,473.6l-1.07-.35-2-1.82-.6.39,1,3-1.2-.6,0,1.37h-.84l-2-2,.88,2.94-2.48-2.86.48,2.29.32,2-2.76-3.42,1.43,4-2.44-2.92,1.22,3.73-.91-.16L384,477.22l0,1.47-.67.26v1.52l-2.21-2.64.75,3-1.62-1.56.08,1.73-.85-.08-1.13-.64-.11,1.4-1.33-1.07.3,2.24-1.1-.62-.78.06-.93-.29-.36.92-.56.49-1.6-1.71.11,1.93.35,2.46-.45.76L370,484.44l-.89-.22.52,2.91-.56.54-.47.72-1.94-2.62.27,2.43-2.06-3,1.15,4.53-1.55-1.8.11,2.13-1.17-.93-1.75-2.37-.25,1.31.45,3-2-3.14-.22,1.39-.92-.4-1-.51-.2,1.47-1.14-1,.31,2.84-.15,1.65-2.16-3.73-.89-.35-.45.86-.79-.09.79,4.32-1.57-2.27-.11,1.87-1-.63-.8-.12.1,2.54-.74.07-.9-.4-1.82-3.23.09,2.6-1.16-1.25-.34,1.29-1.42-2.12.58,4.26-1.07-1-1.05-1,.08,2.75-.95-.67-.68.27-.71.15-1.53-2.71-.39,1.25.15,3.17-.8-.18-1.58-3,.24,3.6-1-.81-.68.23-1-1.06-.32,1.65-.75,0-1-1.12-.73,0-.23,2.08L329,500l-.5,1-.72.13-1.1-1.53-.25,2.1-.87-.58-1.18-1.94-.45,1.29-.8-.3-.3,2-.74,0L321,500.35l-.43,1.43-.64.45-.66.37-1.32-2.9-.55.89-.6.7-.21,2.69-1-1.56-1.09-1.93-.19,2.94L313,500.75l-.73-.06-.15,3.33L311,501.67l-.23,2.91-1.14-2.45-.25,2.95-.89-1-.92-1.24-.91-1.16-.16,3.7-.86-.84-.87-1-.54,1.33-1-1.8-.3,3.07-1.21-3.52-.51,1.63-.91-1.49-.37,2.76-.95-1.77-.35,3.1-.87-1.18-.57,1.33-1-1.91-.87-1.32-.69.25-.74-.23-.69.32-.67.49-.4,3.22-.95-2.23-.81-.93-.39,3.58L289,504.44l-.68.5-.51,2.59-.71.17-.7.36-.84-1.54-.58,1.92-1-3.37-.75-.49-.58,2.07-.84-1.83-.72,0-.74-.29-.55,2.92-.83-2-.69.59-.58,2.85-.79-1.37-.66,1.49-.79-1.56-.77-1.32-.61,3.11-.83-3.15-.75-.9-.73-.39-.61,4.09-.81-3.62-.67,2-.78-2.43-.72-.09-.67,3-.75-2.47-.69,2.59-.75-2.7-.71,1.61-.72-.36-.72,2-.73-2.86-.72.12L261,507l-.73.13-.72-.08-.7-1.18-.72-.25-.76,2.68-.69-2-.78,3.07-.66-3-.71-.17-.76,1.48-.68-1.72h-.72l-.82,3.1-.7-.85-.61-3-.72.08-.71-.31-.82,2.24-.81,1.77-.7-.6-.68-.78-.56-3-1,4.15-.52-3.46-.83,1.79-.62-1.62-.93,3.14-.57-2.23-.87,2-.5-3.14-1,3.31-.38-4.24-1,3.44-.71-.26L236,504l-1,3-.49-2.63-.66-.57-.86,1.45-.88,1.49-.82.91-.74.07-.35-3.53-.79.61-.54-1.56-.69-.3L227.09,506l-.77.27-.79.55-.7-.28-.29-3.36-.84.84-.81.63-.52-1.54-1,2-.33-2.78L220,504.77l-.86.9-.7-.26-.47-1.72-.58-.9-.94,1.27-.86.81-.63-.63-.19-3.24-.8.46-.89.92-.54-1.06-1.34,3.42-.75.06-.25-2.65-1,1.63-.16-3-.74.05L206.85,504l-.72-.08.16-4.46-1.11,1.86-.56-.83-.77.17-1.09,1.62-.5-1.1-.85.51,0-3.42-1.55,3.61-.9.66.28-4.39-1.43,2.92-.2-2.25-.49-1L195.62,501l0-3.17-1,1.11-1,1,.17-3.56-1.66,3.55.12-3.3-1.48,2.78L191,496l-1.69,3.47-.76,0-.67-.33-.53-.76.09-3-1.64,3.09-.45-1-.79.13-.6-.53-.57-.62-.67-.27-.35-1.32L181,497l.2-3.06-.43-1-1.49,2.29-.26-1.54-.64-.34L177,495.08l-.06-2.08-.53-.67-.71-.14-.26-1.42-.79.1-1,.64-.93.48-.22-1.51-1.77,2.78.28-2.86-.44-.86-.64-.35-1.39,1.67-.73-.09-1,.48-.74-.08-.8.06-.26-1.33-.49-.71-1.18,1-.11-1.65.13-2.21-.63-.35-2.33,3.74-.5-.69-1,.55-.48-.73.79-3.65-1,.53-.93.34-.42-.83-1.62,1.88.63-3.16L153.7,487l1-3.88-1.77,2.14-1.14.73-.55-.54-.33-1,.14-2,0-1.7-2.77,4.06-.61-.4,1.28-4.24-.7-.2-2,2.46.23-2.07-.5-.59-1.8,1.94-.73-.18-.37-.85.22-2-2.13,2.5,1.67-4.68-.89.16-2.07,2.31.06-1.61-1.56,1.35.9-3.12-2.35,2.74.28-2,.06-1.57-1.84,1.79,0-1.5-.17-1.13-.46-.63-1.62,1.33-.94.18-1.07.38-.42-.72.5-2.21-1.09.39-.15-1.14,0-1.41-2.31,2.37,1.12-3.16-2.38,2.44-.18-1.07-.19-1.05,0-1.4-2.06,1.86,1.51-3.65-1.39.81-2.06,1.83-.11-1.15.3-1.75-.46-.6-.92.06-2,1.59.25-1.64-1.14.37-.92.06,1.43-3.32-.61-.38-2.54,2.35-.53-.52,1.67-3.56-2.67,2.47.41-1.8-.09-1.09,0-1.26-2.72,2.46,1.19-2.8-.52-.5-1.39.64.64-2-2.67,2.3,1.61-3.27-2.64,2.24,1.24-2.76-1.08.22-.41-.64-1.69,1,.29-1.51.5-1.76L103,455.92l2.41-4.08-1.7,1-.67-.33.41-1.61-1.81,1-.92,0,.65-1.88,0-1.05-2,1.27-.19-.87-1.16.22-1.64.77.32-1.45L97.3,447l-.54-.46-1.72.83V446.3l-1.67.76,1.71-2.93-.61-.4-1,.08.61-1.7-3.33,2.47-.48-.55,2-3.08-2,1.05.29-1.33-1.74.75-.75-.27,1.94-3-2.05,1-1.7.67-.76-.26,2.14-3.13-3.26,2.18,2.94-3.87L84.93,436l-.4-.62.11-1.09-2.75,1.61,2.1-3-2.9,1.73.82-1.75-1.67.57L82,430.87l-2.88,1.65,2.2-3-3.27,2-.28-.72-1-.05,2.54-3.21-3,1.69,1.55-2.3L75.45,428l1.06-1.87.07-1-2.73,1.38,2-2.64-3.19,1.73,2.8-3.27-2.84,1.43-.81-.28-.06-.88,2-2.55-2,.72-.15-.8-2.13.78,2.76-3.11-3.31,1.69-.48-.54.31-1.15,1.42-2-3.69,1.93-.24-.73,1.36-1.94.21-1.06-.64-.41-.75-.34-1.31.07L66.86,411l-2.94,1.25v-.88l.8-1.46-3.13,1.35-.71-.39,3.61-3.43-2.42.82.9-1.5-2.77,1.05-.5-.54-.11-.81-.21-.73.24-1L60.9,403l-1.31,0-1.26,0L60,401l-1.6.19-1.12-.12,1.5-1.83-4.15,1.81,2.47-2.43-2.31.61-.61-.47-.23-.71.49-1.15-1.57.12-1.05-.21,1.68-1.88,1.22-1.58-2.23.51-1.64.14,2.89-2.56-3.41,1.18,2-2-.84-.34.91-1.36-2.55.64.41-1.06-3,.89,3.66-2.89-3.19,1-1.35-.08,1-1.36,2-1.94-3.45,1.07,2.09-2-1.88.19.93-1.31-3.27.92,3.95-2.9-4.54,1.56,1.18-1.43,2.33-2-2.67.57-.49-.57,1.86-1.75-3,.71-.68-.48.06-.84L44,373.91l-2,.17-2.14.24L42,372.48l-.63-.5-.6-.51.16-.87L38.4,371l-.3-.66,1.35-1.43.64-1.09-1.2-.24.45-1,.52-1-1.7,0,1-1.22-.52-.56-3.42.72,2-1.66,1.22-1.31-1.21-.26,1-1.2-4.49,1.12,1.84-1.56,1.61-1.45-.71-.48-3.37.6L34.22,357l-.85-.43-.91-.42-.61-.53-.88-.43,3-2,.94-1.14-2.56.23,2-1.56L33,350.55l.45-.94-2.11,0,1.2-1.21-2.26.07,2.35-1.63-2.52.15-1.82-.11,2.39-1.63-2.64.18,1.09-1.15,1-1.13-.56-.56-1-.42-1.09-.39L30,340.2l-.44-.61-2.79.17,1.72-1.33.31-.85-.77-.51-3.23.28,2.68-1.61-3.22.26,2.92-1.68-2.87.14,3.32-1.78-1.18-.39-2.88.12,1.82-1.3.14-.8-2-.15,1-1.05-1.64-.28-1-.47.17-.8L24.88,326,23,325.79l.57-.9-1.68-.29,2.83-1.52-.4-.63.29-.82-4.1.33.5-.88-.92-.51L24,318.82l-1.4-.39-1.1-.46,2.11-1.27-3.7.17.26-.81,2.12-1.25H19.08l-.61-.6.76-.92,1.89-1.18-2-.27,2.19-1.23.35-.82-2.3-.23-.51-.63.71-.89-2.11-.29,2.41-1.24-.33-.67-1.61-.4.79-.9-.42-.65-.95-.55,1.35-1,.92-.91-.06-.72-.84-.57-1-.55-2.11-.34,1.72-1.05-.35-.67,0-.74-.81-.59L18.75,295l-2.66-.27.65-.85.33-.78-.21-.7-.28-.68-.25-.69,1.93-1-.7-.62-2.73-.31,1.9-1-1.85-.45-.65-.64.9-.86-.9-.6L12.89,285l3.89-1.27-.4-.67-3.85-.22,3.2-1.14-3.13-.33-.23-.7,1.14-.88,1-.84-2.56-.42.42-.78,1.37-.89-1.83-.52,2.64-1,1.95-.93-.28-.7-2.42-.46,2.25-1-3.41-.38,3.16-1-2.86-.44,1.75-.89-1.22-.61-1.78-.56,1.54-.87-.71-.66-1.35-.61,4.39-1.09-.53-.68-3-.48,1.41-.84,1-.79,0-.72-2.7-.53,1.27-.81-2-.59.6-.77-.15-.72,2.5-.87-2.95-.55,1.24-.8-.1-.72,1.12-.78-2.93-.57.67-.76,3.45-.89.27-.73-3.38-.57,0-.73v-.72l2.22-.81-2.71-.62.44-.74-1.56-.68.27-.73-.27-.72,4.06-.84-3.24-.64,3.85-.82-2.85-.65-.09-.73,1.14-.74-.59-.72-2.34-.69,4.56-.78.08-.72-4.07-.69.46-.73-.71-.72,4.23-.75-2.38-.72,1.81-.72-2.1-.72,2.47-.72-3-.72,1.44-.71-2.54-.72-.07-.72,2.06-.72-.14-.72.74-.71L11,226.34l-.49-.72,2.3-.72-1.91-.72.81-.71-1.34-.72-.2-.72,2.14-.72-2.91-.71,2.69-.72-1.69-.71,3.12-.72-2.16-.71,1.36-.72,1.14-.71-1.67-.72.3-.72-2-.71.45-.72-1.33-.72,1.24-.71-1.34-.72,3.75-.72.09-.72.85-.72-2.95-.72.35-.71L10.3,207l3.57-.72-2.16-.72-.81-.72,2.35-.72-3.63-.72,2-.72-2-.72,1.1-.72.47-.71,1.54-.72-.38-.72,1.54-.72-3.62-.71,3.17-.72L10,196.2l.84-.71-1.09-.72,1.92-.72-1-.71.4-.72,1.71-.71,0-.72.7-.72-3.66-.71L12.6,189l-2.69-.71,1.9-.72.18-.71,1.46-.72-1.73-.71.45-.72L10.06,184l1.42-.72,1.37-.71.07-.72.4-.71-2.52-.72,1.12-.71-.16-.72-1.38-.71L10,177.6l-.34-.71,1-.72,1.18-.71,1.32-.72L9.63,174l1.56-.72,3-.72-3.27-.71-1.13-.72,4.39-.71-2.1-.72L10.76,169l2.52-.71-.52-.72-2-.72,1.6-.72-1.62-.71.87-.72L10.22,164l1.29-.72.9-.72-1.11-.72,1.38-.72,1.22-.72-.54-.72L11.84,159l-1.33-.72,1.54-.72,1.74-.72-1-.72-2.13-.72,1.27-.72,1.89-.72-3.63-.72,3.08-.72-.79-.72,1.72-.72-2-.72-2.31-.72,4.35-.71-1.92-.72,1.21-.72-3.85-.72,1.13-.72-.58-.71.7-.72,2.47-.72.67-.72-.25-.71-4.09-.72,4-.72-2-.72-1.8-.72,3.54-.71-1.21-.72,1.27-.72-2.95-.72,1.09-.72-1-.72-1.2-.72,1.66-.72,2.19-.72-.73-.72-1.27-.72.19-.72-1.2-.72,2.37-.72-2-.72,1.41-.72,1.68-.72-4-.73.34-.72,3.59-.72-1.09-.72-1.41-.72-.32-.72,2.58-.72-1.09-.72,1.67-.72-1.17-.72-2.51-.71,2.9-.72-2-.72-.26-.72,1.64-.72-2.22-.72,2.86-.72.55-.72-2.79-.72.17-.72,1.42-.72.2-.73-3.19-.72,1.73-.72,1.3-.72,1.2-.72-.34-.73-3.05-.72,2.31-.72,1.23-.72L10,105l3.81-.72-2.73-.72-1-.72,2.48-.72-2.43-.72,1.74-.72.55-.73-3-.72,4.29-.72L9.4,97.76,9.93,97l.76-.72L14,95.59l-4.5-.72.47-.72.76-.72.73-.72-.6-.72-1.39-.72,1.17-.72,3.61-.72-1-.72-2.76-.72,1.32-.72.6-.72.57-.72-1.61-.73-1.47-.72.13-.72-.69-.72,3.1-.72-1-.72,1.24-.71-1.13-.72.28-.72,0-.72-2.09-.72.27-.72.57-.72.89-.72,2.57-.73-2.35-.72.79-.72-3.17-.73,4.23-.72L13,71.81l-.33-.72-1.78-.73L13,69.64l-2.59-.72L11,68.2l3.22-.73-.09-.72L12.1,66l2.12-.72-2.64-.72L14,63.85l-3.15-.72.65-.72-1.84-.73L12.92,61l-2.12-.73,3.41-.72-2.63-.72,1.53-.72-3.67-.72,4.61-.73-.34-.73-3.77-.72,2-.72,2.22-.73L9.6,53l.2-.72,4-.73.29-.73-3.86-.73,3.44-.72-4.2-.73,2.46-.73-.14-.73,2.1-.73-1-.73L10.38,45l.82-.72-1.71-.86,2.71-.53-2.36-1,.41-.72,1.47-.54L9.9,39.49l4,0-1.76-1.12,2-.24L15,37.7l-2.13-1.37,1-.43L12,34.47l3.39.49L13.94,33.6l-1.69-1.54,4.44,1.22L15,31.7l-.94-1.32.48-.6-.31-1.06,3.8,1.45.63-.4-1.91-2.13-.17-1-.41-1.26,4.06,2.23.12-.78-2-2.66,0-1,1-.1.17-.91,2.89,1.92.92,0L21.92,21.3l-.33-1.56,2.06,1.35.62-.38.55-.49,1,.21-.94-2.75,2.47,2.52L26.28,17l1.82,1.68,0-1.44,1.4,1.14-.38-2.46.38-1,.85,0,1.37,1.41.12-1.81,1.5,2.05-.14-2.84.84.11,1.44,2.51L35.45,13l.91.56,1,.91,1.1,2.23.6-.61.41-2.44.91,1.76.51-2.92.9,2.94.72.7.68-2.59.72-.56.72,3.84.72-4.22L46,14.76l.72.8.72-3,.72,1,.72.08.72,2.47.72-1.87.72-1.16.72,1.16.71.5.72,1.56.72-3.07.72,1.13.72.9.72-2,.72,2.65.71-1.32.72.26.72-.51.72,2.47.72-2.3.71-2.12.72-.29L62.55,14l.72-2.1L64,16.61l.71-1.89L65.42,16l.72-3.18.72-.42.71.69.72,2.84L69,12.36l.72,4.43.71-4.3.72.69.72,2.62.71-2.88.72,2.4.72-2,.72-.07.71-.26.72.72.72,3.11.71-3.93.72,1.18.72.63.72-.75.71,2.84.72-4.1.72,3.38.71-.34.72-2.6.72-1.29.71,3.59.72-2.59L86.22,15l.71,1.54.72-.18L88.37,13l.71.69.72,2.66.72-3,.71.16L92,12l.72,4.28.71-1.21.72-.65.72,1.17.71-1.32.72,2.47L97,13.69l.72-.89.72,4,.71-4.27.72,3.31.72.09.71-.23.72-2.8.72,1.65.71-.27.72-1.51.72-.56.71,3.2.72-3.12.72,3.13.71-2.5.72,2.58.72-2.67.71,1.73.72,1.18.72-.82.71-1,.72-.41.72-1.15.71.15.72,1.53.72-.54.72,1.38.71.65.72-1,.72.66.71-1.12.72,1.87.72-2,.72,2.53.71-1.27.72-2.38.72-.31.72,2.92.71-2.25.72,0,.72-.56.72,2.47.71,1.85.72-.43.72-4.05.72,0,.72,1.07.71,1.47.72-.75.72-.19.72-1.62.72,1.72.72-.19.71,1.9.72.19.72.76.72-2.62.72-.28.72,1.7.72-1.13.72-2.46.71,2.26.72.25.72-.35L143.6,13l.72.21.72,0,.72,1.78.72-.44L147.2,12l.72.43h.72l.72.15.72,2.86.72-2.12.72.91.72,2.59.72-1.26.73-3.09.72,3.8.72-3.12.72,1,.72.75.72-2.2.72-.57.72,1.74.72-1.73.72.6.72.76.72.41.72,1.08.72-1,.72,1.3.72-1.76.72,3.32.72-2.18.72-2.48.72,2.58.72-2.18.72,2.1.72-2.49.72.81.72,1.51.72-1.81.72,3.16.72.33.72-2,.71-.08.72-2.16.72,4.6.72-4.12.72-.16.72,2.35.72,1.08.72.73.71-3.42.72,2.19.72-3.1.72,3.44.72-1.13.72-.47.72,2.51.71-1,.72-3.51.72,2.88.72-.89.72,2.94.72-.51.71-2.6.72.76.72-1.19.72.53.72-.54.72,1.11.71.38.72,1.54.72-2.08.72,1.19.72.68.72,0,.71-4.06.72,3.24.72-3.1.72.57.72.84.72,1.54.71-1.12.72,2.85.72-4.45.72.78.72-.85.72.45.72-.31.71,2.61.72-1.89.72,2.62.72-1.94.72.89.72,2.11.72-1.57.72.35.72-3.5.72,2.57.72-.32.72-.56.71,2.07.72-.43.72-2.3.72,2,.72-2.66.72,2.63.72.09.72-.79.72,1.06.72-3,.72,2.55.72.72.73-.57.72-1.08.72,1.94.72.19.72-2.61.72,2,.72.79.72.37.72-2,.73-.9.72-.89.72.77.72.27.72,2,.72-1,.72,1.27.72-2.78.73,1.86.72-2.28.72-.36.72,3,.72-.26h.72l.72,1.1.72-3.66.72,3.62.72-.15.72-1.9.72.06.72,1.42.72-2,.72-1.56.72,2.48.72-2.35.72-.09.72-.21.72,1.42.72,1.67.71,1,.72-1.18.72,1.41.72-4.19.72,3.46.72-2,.72-.45L257.3,15l.72,1.23.72-1.81.72.92.72-2.47.72,3.54.72.35.72-1.08.72-.35.72-2.69.72,4,.72-3.63.72,1.56.72-.49.72,1.19.72-2.14.72,3.4.72-.35.72-1.4.72-1,.72,0,.72-1.6.72,1.22.72,3.13.72-4,.72,2.82.72.41.72-3.57.72.26.72,3.67.72-.14.72-3.32.73,3.77.72-4.29.72,2.29.72,1.23.72-1.36L284,15.9h.72l.72.38.72-3.81.72,4.21.72-2.35.72,1.21L289,13l.72-.07.72.18.72,2.72.72-.62.72,1,.72-1.06.72-2.1.72-.85.72-.32.72,4.48.72-1.61.72,1,.72-1.45.72-1.36.72,2.18.72-2.49.72,3.42.72-.33.72.22.72-1.42.73-1.25.72,2.83.72-2.59.72,2.3.71-3.18.72.12.72,3.61.72-.57.71.81.72-2.88.72.26.72.63.72-2.41.72-.1.72,3.49.72-1.06.72,1.18.72.29.72-1.19.72,1.18.72-3.35.72,2.65.73-1.23.72.78.72,1.21.72.16.72-1.69.73.82.72-3,.72,3.81.72-.66.72-.2.72-2.81.72,2.22.72-.64.72-1.25.72.12.72.41.72.43.71,2.49.72-2.09.72.6.72-1.41.72,3.21.72-.37.71-1.69.72-.35L338,14l.72-.22.72,1.61.71-3.07.72.42.72,2.85.72-3L343,14l.72,2.46.72-.62.72-.32.71.25.72-3.5.72,4.42.72-3.24.71-1.14.72,4.16.72-1.45.72,1,.71-2.42.72,1.42.72-2.28.72,3.65.72-1.66.71,1.62.72-3.06.72-.6.72,1.87.72.64.72-1.23.72,1.49.72,1.38.72-2.39.72,2.18h.72l.72-2,.72-.64.72,2.38.73-3.16.72-.9.72,1.41.72,2.3.73.11.72-1.07.72-.92.73,1.13.72,1.22.72-.8.73-3.49.72,1,.72,2.82.72-1.78.72,1.78.72-3.38.72.76.73.41.72,1.25.72-.06.72-2,.72,1.37.72,1.5.72-1.64.72-1.36.72-.63.72,1.48.72-.72.72.7.72-1.36.72,3.56.72,0,.72-.27.72.22.72-3.91.72,4.8.72-2.57.73,1,.72,1.14.72-1.65.72-2.11.72,1.45.73-.11.72-1.85.72,4.47.73-2,.72-.53.73-.6.72.79.72.35.73-1.1.72-.45.72-1.16.73,4,.72-2.58.72,2.44.72-2.93.72,0,.73,3.39.72-2.33.72,2,.72.79.72-3.33.73,1.23.72,1.22.72-1.18.72-1.89.73,2.35.72.8.72-1.38.73-1.61.72,2.9.73.73.72-2.75.72.37.73-.46.72.84.73-.57.72,2.26.72-.76.73.94.72-2.5.72.22.73-.93.72,2.74.72-2.63.73,3.22.72-4.45.72,2.29.73.34.72-1.51.73-.45.72.47.73,2.17.72.6.73-3.07.72.07.72-.45.72,2.18.72,1,.72-2.57.72-.28.73-.29.72,2.18.73,1.7.72-1,.73-2.81.72.11h.72l.72.39.73,1h.72l.72,1.46.72-3.14.72,4,.72-2.61.73-1.55.72-.41.72,1.81.73,3,.72-2.19.73-2.09.72.16.73,2.72.73.61.72-3.89.72.22.73,3.86.72-1.87L458.5,12l.72,1.11.73,2.63.73-2.29.72,2.77.73-2.94.72-.77.73,1,.73-.51.72,2.78.73.5.73-2,.73-.44.72-.23.72,1.13.73.82.72-1,.73,2.08.73-.92.72-2.08.73-.53.73-.8.73.6.73.39.73,1,.73-.23.73.63.73.17.72,1.59.74-1.37.73-.79.71.4ZM90.47,229.22l-.76.73.71.72,2.22.7-2,.74.08.72-.1.73-1.72.75,2.38.68-.39.73,1.58.68-3,.81,1.65.67v.72l-.91.76,1,.68-1.78.8.76.69,1.29.67.69.69-2.82.86.12.73,2.43.58-3.08.91.9.67,3.82.48-4.53,1,1,.66-1.09.81.83.67.44.69,2.87.49.19.7.2.7-.25.75-3.08,1-.36.77,3.48.38-2.47,1,3.34.37.5.66-2.78,1-.57.79,1.34.57-.18.75-.41.78.38.68,1.9.48-1.33.9,1,.59,1.55.5-4.26,1.34,4,.15-2.37,1.08-1.12.91-.25.77,4.12.07-2.72,1.18-.39.8,2.49.31-.24.77-2.59,1.19,4.23,0-3,1.29,1.82.4-.9.91.44.65.29.68-.71.88,1.72.39.29.67,1,.52-2.76,1.33,2.61.17-.86.93.94.53-1.7,1.12,1,.53,1.26.44L96,286l-1,1,.28.68.81.54-.2.8,2.37.14-.51.88-1.71,1.2,2.29.13-.32.84.81.52.6.58-2.1,1.36,1.49.32.15.7,1.92.18.4.63-2,1.37,2.81-.12.41.61-3.13,1.76.8.5,1.16.38-.72,1,1.7.19-.94,1.08.38.63-1.19,1.19,1.27.32,0,.76.35.64.74.5-.72,1,2.34-.11.31.65-2.18,1.61,4.21-.86-.2.84-3,2,2.29-.14L103.72,314l2.25-.14-1.23,1.29,2.39-.22-.47,1,.71.48.08.75L106,318.56l-.28.92,4.69-1.32-1.63,1.52-.71,1.12,0,.82,0,.78,2.39-.33-2.53,2,.55.54,4-1.14-.72,1.15-1.55,1.57,2.08-.24,0,.79-1.44,1.55-.28,1,2.9-.7-.59,1.13,2-.27-2.2,2,.69.45.19.73-.13.9.31.66,2-.32-.57,1.17-.67,1.22,1.22.14-.35,1.05.69.44,2.08-.4.41.59.37.62,1.81-.28.63.45L120,340.67l-1.6,1.88,3.75-1.55.95.24-.89,1.43,1.48-.12-1,1.54,1.85-.38-.36,1.11-1.53,1.93.13.8,0,.91.59.47,2.66-1,1.28-.05-2.67,2.85,2.17-.7-.85,1.53-.19,1.06,2.88-1.28-1.9,2.37,2.6-1.1-.65,1.42.3.69-.1,1-.36,1.23,1.48-.27,1.42-.22,1.3-.15L131,358.69l3.34-1.88.56.46.48.52-1,1.81-1.07,1.9.91.17.83.23-.77,1.68,3.18-1.92-2.18,3,1,.05L138,364l-.69,1.66,3.22-2.09-1.08,2.05,1.09-.07-1.3,2.3,2.43-1.4-1.81,2.86,2.59-1.61.93.08-1.94,3.05,1.25-.25.85.15,1.8-.87-.45,1.55,1.82-.92.06,1,.82.16-1.76,3.07,1.75-.89.75.24-.48,1.66,1.81-1,1.1-.19-.89,2.18,2.43-1.81-2.07,3.66,1.39-.55.16,1,3.15-2.8.35.7-.41,1.69-1.18,2.7,1.42-.66.37.72,2.71-2.41L158,380.4l0,1.26,1-.19-1.28,3,2.4-2.1-.14,1.45-.43,1.88,1.36-.69.83.07,1.24-.54,1.54-1-2,4.3.83.08,1.54-1,1.3-.7.42.68-.32,1.86.58.45.43.69,1.79-1.55-.44,2.13,1.73-1.49.52.54,1.32-.83-1,3.1,1-.33-.41,2.19,2.92-3.72-1.19,3.61,1.19-.64.73.16,1-.33-.53,2.53,2.14-2.52.16,1.25.86-.09-.61,2.77.8.05,1.2-.79.32,1,1.59-1.62,1-.47.72.14-.21,2.14,1.38-1.27-1,3.92,2-2.67.17,1.36.34,1,.4.9,1.31-1.19-.09,2.05,2.34-3.69-1,4.24.67.29,1.77-2.44-.24,2.53,1.2-1.05,1.29-1.33.24,1.37,1-.5-.41,3.12,1.68-2.45.57.54-.16,2.57.62.44.8-.09,1.48-2.08.12,1.88.32,1.33,1.58-2.46,0,2.17.58.56,1.39-2,.49.85.74,0,1.33-1.92-.42,3.93.57.61.85-.3.9-.52.6.52.83-.28.47,1,1.15-1.51.84-.37L213,408l.72.13,1.34-2.44-.32,4.35,1-.94,1.18-1.87v3.26l.71.17,1.68-4.23.14,2.71.41,1.56.73.06,1.16-2.07.6.67.37,1.83.67.41.65.47,1.17-2.33.93-1.14.46,1.53.53,1.2.55,1.06.74,0,1-1.5,1-1.65.36,2.36.69.31.82-.64.49,1.72,1.12-2.88.68.38.78-.47.26,3.66,1.17-3.64.45,2.31.74-.14.79-.54.46,2.5.7.25,1.06-3.25.83-1.17.51,2.23.69.33.93-2.35.42,3.6.73,0,.64,1.2.74-.2.92-2.75.71.23.7.28.7.32.61,2.05.92-3.6.62,1.88.68,1,.76-.72.73-.34.65,2.34.86-4.34.62,3.36.71.79.77-1.9.75-1.39.72.24.68,3.14.75-2.7.72,1.55.72,1.09.74-.25.73.39.72-1.93.73,1.26.7-1.87.73.45.69-2,.74.91.72.24.7-1,.73.4.8,2.35.77,1.26.64-2.25.61-2.66.71-.08.72.09.81,1.69.61-1.8.92,3.2.71-.24.71-.19.79.89.63-1.28.79.78.6-1.53.66-.77.84,1.38.8.72.55-1.84.64-.78.8.73,1,2.93.68-.49.43-2.62.49-2,1,2.74.61-1,.63-.78.62-.71,1.29,4.11,0-4.93.89,1.17.86.89.73,0,.7-.22.55-1.13,1,1.94.62-.65.39-2,.71-.11.8.41.55-1,1.22,2.62.64-.48.28-2.33,1.47,3.72.54-1,.12-3,1.26,2.51.22-2.43,1,1.13.88.64.94.83.37-1.62.52-1,.95.89.67-.31,1.11,1.44.45-1.18.05-2.72.44-1.12,1.38,2.38.63-.44.53-.77.4-1.22.46-1,.88.48.52-.77,1,.91.6-.49.73,0,.42-1.05,1.33,1.83,1.33,1.76-.35-3.4.49-.8.92.5.65-.32,1.65,2.57.88.31.75-.07-.93-4.72,1.89,3.09-.36-3,.6-.43.89.33,1.11.88.09-1.73,1.75,2.46,0-2,.05-1.76,1.23,1.12.91.31.44-.81.18-1.4.66-.27,1.72,2.13.24-1.24.65-.29,1.14.77.91.22.37-.91-.28-2.29,1.33,1.13.5-.63,1.2.83-.39-2.44,1.06.54.11-1.37,1.44,1.24.11-1.37,1.39,1.12.93.22-.21-1.95,1.82,1.86-.81-3,1.06.43,1.56,1.31-.19-1.81,1.64,1.41.22-1.07.11-1.26,1.33.83.1-1.25.92.11-1.13-3.26,2.63,2.91-1.26-3.4.16-1.09L359,388l-.38-1.94.54-.49.26-.89.55-.47,1.43.85,1.44.85.77-.16-.86-2.54,2,1.68-.43-1.87-.21-1.55.93.08,1.25.5.64-.35,1.43.72.11-1.06,1.41.66-.71-2.13-.28-1.55,2.39,1.91-.14-1.36-.94-2.35,1.29.48-.12-1.29,2.16,1.52.75-.24,1.07.16.21-.89-1.33-2.68.68-.3,1.35.46-.29-1.41,1.35.44,0-1,2,1.2,1.33.37-1.29-2.48,1.31.36-1.58-2.74,3.56,2.72-.33-1.4-.72-1.79,2.24,1.27h1l.4-.64-.18-1.2.93-.11,0-1.05-.21-1.21.48-.54-1-2,2.39,1.27,1.71.6-.31-1.28-1.68-2.51,1.16.09,2.05.87-.27-1.21-.29-1.21,1.36.24,1.54.36h1.13l-1.72-2.41.85-.22,1.09,0,1.37.18v-.93h1.18L395,353.87h1.15l-1.11-1.78-.22-1.07,3.92,2.1-2.7-2.95,3.07,1.41,0-.93.89-.25.09-.83-2.23-2.5,2.25.74.31-.66,1.82.39-.06-.93-1.47-1.88,1.46.12-1.3-1.74.95-.22,1.22-.05,1.18-.09,1.93.39-1-1.51L404,340.07l.52-.52h1.33l1.13-.16L404.45,337l4,1.57.9-.31L407,336l.5-.54,2.83.81-.29-1-1.62-1.75,1.95.27L409,332.18l.41-.59.05-.79,2.32.43v-.82l1.25-.16-.39-1,.69-.46-.53-1.09v-.82l-.27-1-1.16-1.38,2.91.65.1-.76,1.57,0L414.7,323l.8-.41-1-1.26,2.83.52.5-.57-2-1.72,2,.11-2.47-1.89,3.14.6-.35-.94.92-.39,1.17-.3-1.62-1.47L417,313.78l2.88.41,1-.39.84-.45-.55-1-2.92-1.93,1-.39,2.86.33-.84-1.09,1-.41-1.85-1.46-.76-1,2.32.09-1.25-1.22-.24-.84,2.7.19L420.71,303l2.63.15-.47-.92.36-.64-1.65-1.3h2.34l1.9-.15v-.76l-1.73-1.3,2.14-.09.86-.5-.31-.85-.14-.81-2.08-1.36-.76-1,1.64-.28.91-.49,1.5-.33L425.53,291l2-.21-2.27-1.34.31-.66,1.54-.34-2-1.24.87-.52-.44-.84,3.11,0,1.36-.42-4-1.69,1-.5,2.47-.17-3-1.41,1-.51,2.67-.15.12-.72L427.44,279l1.26-.47-1-.94.55-.62,2.79-.18-2.79-1.27,3.78,0L430,274.38l-1.76-1.05,4.4.06-4-1.44,3.81-.07-3.68-1.35.68-.61,2.84-.27-1.15-.92.2-.69-1.22-.92,3.44-.21-2.85-1.15,2.21-.41-1.46-.93.55-.65,1.17-.58-1.09-.87,1.62-.52-2-1,1.12-.59.38-.68.74-.64-.6-.8-.11-.73,2.28-.49-1.7-.91-2.3-.95-.43-.76,3-.44.63-.67-2.79-1-.2-.73-.41-.76,3.22-.46-2.27-.9,3.59-.46-4.57-1,2.31-.56-1.95-.85,1.34-.63,2.9-.55-1.07-.79-2.93-.88,3.71-.53-1.17-.78.73-.69.86-.69-1.26-.78,1.33-.68-2.74-.82-1.47-.76,4.26-.6.67-.71-.64-.74.37-.72-4.32-.81,2.68-.68-1.73-.75.93-.71.38-.72-2.43-.74.17-.72.67-.72,3.64-.71-2.49-.72,1.53-.71-1.12-.72,2.46-.71-4.24-.72,1.26-.72,1.24-.71-2.65-.72.91-.72-.06-.71,0-.72,3-.72-1.09-.71-3.08-.72.38-.72,3.3-.71-3.54-.72,1-.71,0-.72,1.29-.72-1.51-.71.2-.72,1.35-.71.14-.72-2-.71.92-.72-.83-.71,0-.72,1.75-.71-2-.72.76-.71,2.16-.72-1.16-.72.46-.71-1.86-.72.13-.72,2-.72-1.31-.71-.31-.72-.23-.72,3.1-.71-.77-.72-.57-.72-2.6-.71,1.72-.72,2.1-.72-2.85-.71,2.85-.72.19-.72-3.25-.71,2.51-.72-2.84-.72,2.61-.71-2.87-.72,1.11-.72,1.37-.72,1.29-.72-3.63-.71,1-.72,1.13-.72-1.24-.71,1.93-.71-3-.72,3.65-.71-1.54-.72,1.59-.71-2.68-.72,1.86-.72-3-.72,1.28-.71-1.25-.72,2-.72,1.4-.71-.17-.72.31-.71-.25-.72-.42-.71-3.16-.72,2.31-.71,1-.72L432,170.5l3.87-.72-.44-.71-2.53-.72-.12-.72-.31-.72,1.6-.72-1.86-.72,3.43-.72.53-.71-2-.72,1.88-.72.09-.72.33-.71-2.88-.72,2-.73-.55-.72-2.82-.71,1.41-.72-1.47-.72,1.6-.72,1.35-.72-3.08-.72,3.17-.72.93-.72.41-.72-4.07-.72,3.63-.71-2-.72,2.44-.72.11-.72-3-.72,2.47-.72-2.58-.72,2.71-.73-1.6-.72.36-.72-2-.72,2.87-.73-.12-.72-1.38-.72-.13-.73.07-.72,1.17-.73.25-.73-2.7-.69,1.94-.79-3.12-.53,2.94-.94.08-.75-1.58-.53,1.57-1-.16-.73-3.2-.09.66-.85,2.74-1.43-.31-.7.05-.82h-2.39l-1.94-.06.3-.84.43-.92,2.45-1.85-4.12,1.08,2.77-2.13-2,.18,1-1.39-3.13,1,1.52-1.74-2.14.53,2.18-2.31-3.17,1.36,3-3.07-3.22,1.58-.28-.66,2.18-2.82-2.79,1.5,1.39-2.29-.18-.89-1.6.56-1.59.66-1.18.28-.61-.32,1.64-3.15-1,.1.28-1.65-.51-.63-2.38,2.23-.78-.08-.92.2-.49-.51.93-3.24-1.09.49-1,.35-.07-1.63-1.52,1.68.33-2.78-1.6,2.16-1,.73-.61-.36-.21-1.76-.5-1-1.05,1.19-.88.75-.59-.64-.18-3.24-.85.46-.88,1-.64-1-1,3.53-.68.15-.62-2.58L403,109l-.72-2.9-.72.18-.71,3.36-.72.06-.72-4.4-.72,2-.72-.69-.71.32-.72,1.81-.72-1-.72.68-.72-3.34-.71,3.86-.72.84-.72-4.34-.72,3.18-.72-2.15-.72-.87-.71,3.48-.72-3.08-.72,1.32-.72,1.17-.72-3.49-.72,3.85-.72-3.22-.72,3.07-.72-3.32-.72,3.78-.71.24-.72-.13-.72-.6-.72-2.87-.72,3.42-.72-.87-.72.35-.72-.34-.72-.43-.72-.07-.72-1.15-.72,2.41-.73-3-.72-.83-.72,2.64-.72-1.38-.72-.13-.72,2.08-.72-2-.72-.46-.72.09-.72-1.25-.72.35-.72.93-.72.76-.72-1.35-.72,3.22-.72-2.78-.72-.66-.72-.1-.72,2.05-.72.18-.72.79-.72.2-.71.34-.72-1.14-.72-.48-.72,1.37-.72-1.48-.72-2.1-.72-.08-.72,4.35-.72-.45-.72.9-.71-.48-.72-3.67-.72.9-.72.68-.72-.59-.72,2.38-.72-3.14-.72,3.68-.71-3.93-.72,2.68-.72,1.14-.72-.25-.72-.76-.72-1.84-.72-1.54-.72,4.86-.71-.09-.72-4.37-.72.13-.72,3.1-.72-2-.72-.3-.72,2.54-.72.18-.72-.59-.72-1.84-.72,3.2-.72-4.91-.72.56-.72,3-.72-1.44-.72,1.93-.72-3.16-.72,3.53-.72-1.86-.72-1.39-.72,2.46-.72-1.31-.72-.89-.72-.32-.72,2-.72.63-.72.88-.72-.41-.73-2.15-.72.9-.72-.89-.72-1.22-.72,3.24-.72-3.29-.72,3.34-.72-.81-.72-.78-.72-1.21-.72,2.68-.72-3.88-.72,1.44-.72,2.67-.72-.91-.72-1.62-.72-.24-.72.56-.72,2.41-.72-1.49-.72,1-.72.57L303,106l-.72,0-.72,3.38-.72-.12-.71-3.86-.72,3.57-.72-1.7-.72-.83-.72-1-.72,3.6-.72-2.95-.71-.1-.72,1.35-.72-2-.72,3.45-.71-3.58-.72,3.39-.72-2.93-.72.84-.72-.25-.72,1.8-.72-1.36-.72-1.68-.72,4.88-.72-4.69L285,107l-.72.18-.72-1.5-.72,2-.72.58-.72-1.85-.73-.78-.72,2.31-.72-.53-.72.92-.72,1.66-.72-1.29-.71-1.84h-.72l-.72,1.77-.72-.8-.72,1.69-.72-3.31-.72.12-.72.77-.71-1.65-.72,4.07-.72-.06-.72-3.58-.71,2.16-.72-1.16-.72,1.75-.72.33-.71-3.49-.72,2.19-.72,1.68-.71.35-.72-3.71-.72,3.85L260.6,105l-.72,2.49-.72-.14-.71-.83-.72,3.1L257,106l-.71,3.29-.72-1.78-.72,1.6-.71-3.08-.72,3.24-.72-3.61-.72,3.74-.71-.27-.72.75-.72-4-.72,3.38-.71-2.69-.72,2.52-.72-2-.72-.72-.72,3-.72-3.24-.71,3.56-.72-4.24-.72,3.1-.72.44-.72-.51-.72-3.15-.72,2-.72-.39-.72,2.15-.73-4.09-.72,3.65-.72,0-.72-1-.73-2.35-.72,4.1-.72-.25-.72-2.26-.73-.8-.72.26-.72.4-.72,1.1-.72-2.73-.72,3.11-.72-.51-.72-1.5-.72,3.33-.72.35-.72-4.93-.72,2.46-.72-1.61-.72,2.88-.72.11-.72-.37-.72-.24-.72-.78-.72-2-.72,1.1-.72,1-.72-2.44-.72,1.44-.72.87-.72-2.25-.72,4.46-.72-3.38-.72,2.27-.72.28-.72-.19-.72-1-.72,1.4-.72.78-.73-2.42-.72-1.86-.72,2.17-.72,1.49-.73-3.8-.72,3.54-.72-2.79-.73.55-.72-1.46-.72,2.53-.72-.89-.73,3.08-.72-4.61-.72,3.25-.72,1.15-.72-1.51-.72-2.7-.72,3.53-.73-2.77-.72,1.75-.72-1.44-.72,3.32-.72-4.85-.72,4.74-.72-1.7-.73-3-.72,2.63-.72.18-.73-2.45-.72,3-.72.4-.73-.43-.72-2.86-.72,1.84-.73,2-.72-2.72-.72.36-.73.32-.72-.52-.72,2.49h-.72l-.73-1.83-.72-1-.72,1-.72-.82-.73-.89-.72,1.54-.72-1.39-.73.24-.72,3.42-.73-2.49-.72-1.65-.72,1-.73-1.37-.72,4.57-.72-2.3-.72-2-.72.48-.72,3.34-.72-1.53-.72.62-.73.68-.72.37-.72.66-.73-3.46-.72-1.29-.72,2.47-.73-2.48-.72,1.18-.72-.77-.72,2-.72-1.55-.72,2.15-.72-2.77-.72,2.42-.72,1.67-.73-2.8-.72,2.55-.72-1.41-.73-1.34-.73.35-.72.81-.73.9-.72-2.85-.72.23-.73,2.69-.72-2-.72-.56-.73.57-.72,3.17-.73-3-.73,3.16-.72-3.3-.73,2.79-.72-3.7-.73,1-.72,2.78-.73-2.12-.73-.35-.72,1.91-.73-1.28-.72,1.5-.72.83-.73-.39-.72-3.16-.73,1.8-.73-.79-.72,1.55-.73-3.13-.73.22-.73-.49-.72,4-.74-.71-.72.77-.73-4.25-.73,1.26-.73,1-.73-2.35-.74,3.63-.73-.44-.76-2.35-.61,3.12-.66.5-.75-.89-.94-2-.47,2-1.08-2.27-.84-.39-.3,2.3-.62.51-.91-.68-.15,2.11-1.43-2.3-.65.41-.19,1.64-1-.64L110,110l-.32,1L108.39,110l-1.14-.65-.71.29-.32,1-.21,1.11.44,2.09-1.6-1.21-.47.58-.69.28-.16,1-2.26-1.71,1.06,2.47-1.06-.13-.84.15-.47.57-.41.63-.41.62-2-.86-.06,1,1.54,2.27-2-.72,1,1.66,0,.89H96.3l.28,1,.69,1.25-3.82-1.47-.11.81,3,2.43-3.28-.88,2.45,2-.15.67-1.42.14-1.23.27L94.79,129l-.7.46-1.61.21,1.5,1.17-2.83,0-2.16.24,0,.81,2.17,1.19-2.43.34,3.2,1.23-3.3.32,2.7,1-1.87.59,1.11.8,1.69.76-1.61.69.64.72,1.3.71-4.46.72.47.71,2.94.72-1.47.71-1,.72v.71l2.66.72-1.33.72,1.94.71-.66.72.11.72-2.55.72,2.92.71-1.29.72.06.71-1.16.72,2.89.72-.7.71-3.49.72-.31.71,3.36.72V156l0,.72-2.25.71,2.68.72-.47.71,1.55.72-.3.71L93,161l-4.09.71,3.23.72-3.87.72,2.84.71.07.72L90,165.3l.59.72,2.32.71-4.57.72-.08.72,4.06.72-.47.71.71.72-4.24.72,2.38.71-1.81.72,2.1.71-2.47.72,3,.72-1.44.71,2.55.72.06.72-2.06.71.14.72-.74.72,1.44.72.48.72-2.3.71,1.91.72-.81.72,1.34.71.2.71-2.13.72,2.9.71-2.68.72,1.68.71-3.12.72,2.16.72-1.36.72-1.13.72,1.66.71-.3.72,2,.71-.46.72,1.33.71-1.24.72,1.34.71-3.75.72-.09.71-.85.72,3,.71-.36.72,1.26.72-3.57.71,2.17.72.8.72-2.34.72,3.63.72-2,.72,2,.72-1.11.71-.47.72-1.54.72.38.72-1.54.72,3.62.72L89,209l3.36.72-.84.71,1.09.72-1.92.72,1,.72-.4.72-1.72.72,0,.72-.7.72,3.67.72-2.86.71,2.69.72-1.9.72-.17.72-1.47.72,1.73.72-.45.72,2.12.73-1.42.72-1.38.72-.07.72-.4.73,2.52.72-1.12.72.16.73,1.39.72.33.87Z" transform="translate(-9.3 -11.86)"/><path d="M159.82,163.28a23.79,23.79,0,1,0,23.8,23.79A23.8,23.8,0,0,0,159.82,163.28Z" transform="translate(-9.3 -11.86)"/><path d="M365.11,163.28a23.79,23.79,0,1,0,23.8,23.79A23.8,23.8,0,0,0,365.11,163.28Z" transform="translate(-9.3 -11.86)"/><path d="M287.3,334.82c-.7,4.25-3.06,5.95-7.25,6.06-4.77.12-6.37-2.07-8.73-5.61a8,8,0,0,0-.84-.9c.27-8.4,1.11-16.68,1-25,6.25-2.92,11.09-8.56,17.38-14.27,10.45-9.51,8.51-23.11-26.38-24.46-34.89,1.35-36.83,14.95-26.38,24.46,6.65,6,11.65,12,18.45,14.79.28,8.58-1,17.25-1.25,25.83-2.31,3.44-3.74,4.87-8.4,5.17-4.18.26-6.61-2.09-7.25-6.06-1.78-10.92-18.33-6.26-16.57,4.56,1.82,11.09,11.38,17.33,21.78,18.62,7.94,1,14.25-1.89,19.35-6.63a22.15,22.15,0,0,0,3.81,3.16c4.54,2.91,10.84,3.6,16.08,3.47,10.37-.28,20.08-8.26,21.77-18.62C305.63,328.56,289.08,323.9,287.3,334.82Z" transform="translate(-9.3 -11.86)"/><path class="cls-2" d="M365.11,168.18A18.89,18.89,0,1,0,384,187.07,18.9,18.9,0,0,0,365.11,168.18Z" transform="translate(-9.3 -11.86)"/><path class="cls-3" d="M159.82,168.18a18.89,18.89,0,1,0,18.89,18.89A18.89,18.89,0,0,0,159.82,168.18Z" transform="translate(-9.3 -11.86)"/><path class="cls-4" d="M357.54,174.47a5,5,0,1,0,5,5A5,5,0,0,0,357.54,174.47Z" transform="translate(-9.3 -11.86)"/><path class="cls-4" d="M152.25,174.47a5,5,0,1,0,5,5A5,5,0,0,0,152.25,174.47Z" transform="translate(-9.3 -11.86)"/><path class="cls-4" d="M146.11,185.16a2.37,2.37,0,1,0,2.37,2.36A2.37,2.37,0,0,0,146.11,185.16Z" transform="translate(-9.3 -11.86)"/><path class="cls-4" d="M366.13,170a2.37,2.37,0,1,0,2.37,2.37A2.37,2.37,0,0,0,366.13,170Z" transform="translate(-9.3 -11.86)"/><path class="cls-5" d="M244.7,279.89c-.67-1.12-3.12-.9-5.47.49s-3.71,3.44-3,4.56,3.11.91,5.46-.49S245.36,281,244.7,279.89Z" transform="translate(-9.3 -11.86)"/><path class="cls-1" d="M477.67,19a30.75,30.75,0,0,1,30.75,30.75V234q0,78.69-30.57,139.84t-86.43,94.87q-55.87,33.72-128.95,33.73t-129-33.73Q77.64,435,47.08,373.87T16.52,234V49.75A30.75,30.75,0,0,1,47.27,19ZM93.81,229.81q0,54.1,20.73,95.22t59,63.25q38.3,22.13,88.9,22.13t88.89-22.13q38.29-22.14,59-63.25t20.73-95.22V141.1a30.75,30.75,0,0,0-30.75-30.75H124.57A30.76,30.76,0,0,0,93.81,141.1Z" transform="translate(-9.3 -11.86)"/></svg>