<svg xmlns="http://www.w3.org/2000/svg" viewBox="0 0 500.51 231.84"><defs><style>.cls-1{fill:#f0caa5;}.cls-2{fill:#faf1dd;}.cls-3{fill:#eaac8e;}.cls-4{fill:#49312c;}.cls-5{fill:#755a58;}.cls-6{fill:#e7b387;}</style></defs><g id="OBJECTS"><path class="cls-1" d="M484.07,181.91c1.45-17.91,15.69-29.19,20.72-45.55,3.73-17-24-28-34.86-38.21-23.37-28.37-85.69-22.46-113,1.61-8.05-2.33-18.94,17.33-25,22.62-14.55,7.42-24.09,33.26-8.62,43.48,16.18,7.51,18.42,41.4,36.57,28.14,2,4.39,8.33,6.29,7.44,12-3.77,17.32-28.05,31.2-17.3,50.86-18.31,5.11-21.78,38.12-1,32.64a10.94,10.94,0,0,0,14.73.19c2.75,5.47,9.83,2.46,14,.49,6.83-2.59,16.49-6.6,14.36-15.63h44.55c-1.79,9.23,9.53,11.9,16,14.67,4.2,1.74,10,5.08,13-.3,4.14,3.81,11.14.12,14.62-3.13,16.47,9.74,20.29-20.45,5.77-28.13,9.46-22.5-20.39-35-23.24-55.06a7.86,7.86,0,0,1-.55-4.43c.39-2.32,1.73-4.37,2.95-6.34a8.33,8.33,0,0,1,2.37-3.57,9.72,9.72,0,0,1,1.68-1.65,5.47,5.47,0,0,1,5.51-.56C478.31,185.76,482,185.54,484.07,181.91Z" transform="translate(-161.82 -62.57)"/><path class="cls-2" d="M461.6,244.7c-8.84,16.77-19.93,3.06-24.85,34,5.48-8.61-42.71-2.28-44.42-4.12-2.94-11-14.12-15.74-21.89-20.43.88-4.05-3.47-9.15,2.36-12.35,4.76-3.78,17.61,1.71,16.8-7.64-15.74-31,28.32-5.85,42.34-15.81,6-2.32,15.51-3.8,18.07,4,1.62,4.07-4.06,9.67.16,12.7C457.22,235.1,462.85,235.8,461.6,244.7Z" transform="translate(-161.82 -62.57)"/><path class="cls-2" d="M431.34,190.35c-5.61,3.31-13.38-2.15-15.95-7.36-1.92-6.07-9.1,17.39-19.06,10.56,4.48-7.15,9.95-15.4,7.16-24.68,9.33,3.23,8.06,11.5,17.24-1.81C421.78,175.62,432.83,182.37,431.34,190.35Z" transform="translate(-161.82 -62.57)"/><path class="cls-3" d="M435.24,194.59c-4.63-4.66-19.22-.15-20.64-12.47-3.46,6.25-8.82,12.93-17.37,13.13C391,238,446.47,239.39,435.24,194.59Z" transform="translate(-161.82 -62.57)"/><path class="cls-4" d="M436.1,190.86c-11.1,4.34-23.69-5.53-22-17.36a5.13,5.13,0,0,1-2.55-.11c3.5,9.87-3.78,21.23-14.21,22.2a.81.81,0,0,0,0,1.62,27.29,27.29,0,0,0,17.51-5.37,17.46,17.46,0,0,0,22.08.37C437.53,191.71,436.84,190.59,436.1,190.86Z" transform="translate(-161.82 -62.57)"/><path class="cls-4" d="M356.75,98.11c-3-2-6.73-.73-9.3,1.46-3.07,2.62-4.2,6.68-5.8,10.23-3.21,7.18-9.63,11.78-15.58,16.56-5.75,4.62-11.77,10.43-13.26,18-1.54,7.78,2.64,14.92,7.81,20.38s12,9.89,15.91,16.65c2.14,3.72,2.93,8,5,11.78,1.74,3.14,4.61,6.1,8.29,6.7,8,1.3,13.87-7.43,16.71-13.71A40.38,40.38,0,0,0,369.62,163c-2.79-16.75-17.09-31.83-12.41-49.57a21,21,0,0,1,2.28-5.42c.64-1.07-1-2-1.64-1-4.31,6.44-4.53,14.54-2.82,21.88,1.93,8.27,6.14,15.72,9.2,23.58,2.91,7.5,4.54,15.33,2.93,23.34a37.09,37.09,0,0,1-3.78,10.47c-1.74,3.2-3.91,6.48-6.87,8.68s-6.32,2.78-9.29.48-4.25-6.05-5.5-9.45a33.57,33.57,0,0,0-5.51-10.06,68.55,68.55,0,0,0-8-7.8c-5.32-4.66-11.55-9.89-13.17-17.14-1.67-7.49,2.92-14.16,8.12-19s11.56-8.7,16.25-14.23a35,35,0,0,0,5.51-9.64c1.37-3.33,3.05-7,6.66-8.34a6.34,6.34,0,0,1,4.52,0c.94.36,1.4-1,.65-1.56Z" transform="translate(-161.82 -62.57)"/><path class="cls-4" d="M359,194.62a10.07,10.07,0,0,0,2,4.41,25.08,25.08,0,0,0,3.35,3.85,74.45,74.45,0,0,0,8,6.28,57.26,57.26,0,0,1,7.84,6.39,23.37,23.37,0,0,1,3.21,4,29.89,29.89,0,0,1,2.07,4.62c.39.92,2.08,1,2-.26-.34-3.24-2.51-6.34-4.59-8.73a47.14,47.14,0,0,0-7.78-6.8c-2.84-2.08-5.76-4-8.39-6.4a34.18,34.18,0,0,1-3.6-3.72c-1.06-1.3-1.83-2.86-2.93-4.11a.66.66,0,0,0-1.12.47Z" transform="translate(-161.82 -62.57)"/><path class="cls-4" d="M383.22,211a21.19,21.19,0,0,0,12.69,8.29c1.21.25,1.73-1.59.51-1.87a23.62,23.62,0,0,1-12.24-7.17c-.46-.5-1.37.17-1,.75Z" transform="translate(-161.82 -62.57)"/><path class="cls-4" d="M382.26,185.68c.63,2.91,2.81,5.4,5.13,7.16a17.51,17.51,0,0,0,9.27,3.48c6.93.54,13.83-2.52,16.4-9.29a24.78,24.78,0,0,0,.89-12.44c-.23-1.53-2.38-1-2.5.33-.39,4-.08,8.13-1.73,11.87a12.3,12.3,0,0,1-7.78,6.71,14.66,14.66,0,0,1-11.34-1.14c-3.13-1.71-5.12-4.38-7.23-7.15a.61.61,0,0,0-1.11.47Z" transform="translate(-161.82 -62.57)"/><path class="cls-4" d="M400.71,138.65a35.17,35.17,0,0,1,4.07-1,30.84,30.84,0,0,1,4.05-.68,27.28,27.28,0,0,1,8.26.5c1.27.27,1.81-1.68.54-2a29.25,29.25,0,0,0-8.95-.52,25.36,25.36,0,0,0-4.41.81,24.55,24.55,0,0,0-4,1.73.63.63,0,0,0,.49,1.15Z" transform="translate(-161.82 -62.57)"/><path class="cls-4" d="M455.67,90.39c2.94-1.81,6.73-.49,9,1.76,2.68,2.64,4.24,6.16,6.61,9.06,4.61,5.66,11.43,8.77,17.72,12.16,5.9,3.17,12.18,7.13,15,13.5,3.32,7.48-.63,15.2-5,21.26s-10.05,11.73-12.4,19.16c-1.24,4-1.25,8.21-2.75,12.08-1.15,3-3.51,5.91-7,6-3.61.06-6.89-2.43-9.38-4.8a37.21,37.21,0,0,1-6.64-8.45,36.83,36.83,0,0,1-4.63-21.7c.79-8.82,3.88-17.22,5.17-25.95,1.11-7.5.95-15.7-3-22.4a22.38,22.38,0,0,0-3.18-4.13c-.87-.89-2.16.43-1.35,1.35,5.42,6.15,6.48,14.82,5.63,22.69-1,9.16-4.28,17.89-5.34,27.05A41.24,41.24,0,0,0,458,172.22a38.81,38.81,0,0,0,6.53,9.42c2.64,2.78,5.88,5.5,9.7,6.42a9.7,9.7,0,0,0,9.86-3.23c2.63-3.16,3.47-7.09,4.11-11.05a39.78,39.78,0,0,1,1.48-6.55,28.51,28.51,0,0,1,2.53-5.25,103.35,103.35,0,0,1,7-9.66c4.88-6.38,9.55-14.12,8.08-22.5-1.26-7.16-7.14-12.43-13-16.14-6.33-4-13.64-6.62-19.16-11.86-2.93-2.79-4.67-6.37-7.14-9.52-2.16-2.77-5.29-5.06-8.95-5a6,6,0,0,0-4.35,1.79.85.85,0,0,0,1,1.33Z" transform="translate(-161.82 -62.57)"/><path class="cls-4" d="M468.76,184.12c-.84,1.38-1.3,3-2.08,4.45a32.52,32.52,0,0,1-2.75,4.19,95,95,0,0,1-7,7.74,50.06,50.06,0,0,0-6.47,8.05c-1.66,2.69-3.4,6.3-3.15,9.55.08,1.05,1.7,1.43,1.95.27a34.5,34.5,0,0,1,1.15-4.9,22.68,22.68,0,0,1,2.4-4.54,56.28,56.28,0,0,1,6.75-8,72.25,72.25,0,0,0,6.68-7.63,23.83,23.83,0,0,0,2.54-4.3,10,10,0,0,0,1.19-4.59.66.66,0,0,0-1.22-.33Z" transform="translate(-161.82 -62.57)"/><path class="cls-4" d="M448,204.26a24.83,24.83,0,0,1-4.66,5.51,23.16,23.16,0,0,1-6.11,3.75c-1,.43-.27,2.19.74,1.77a21.18,21.18,0,0,0,11.1-10.41.62.62,0,0,0-1.07-.62Z" transform="translate(-161.82 -62.57)"/><path class="cls-4" d="M444.34,179.4c-1.26,2.49-2.38,5-4.34,7a15.41,15.41,0,0,1-7.27,4.28,13.05,13.05,0,0,1-14.73-6c-1.78-3.19-2.21-6.9-3.2-10.36a1.28,1.28,0,0,0-2.5.34c.23,7,2.73,14.84,9.78,17.7,6.1,2.47,13.69.83,18.52-3.53,2.54-2.3,4.77-5.66,4.88-9.17a.61.61,0,0,0-1.14-.3Z" transform="translate(-161.82 -62.57)"/><path class="cls-4" d="M430,158.25a13.7,13.7,0,0,1-6,8.62c-1.71,1.13-3.69,1.95-5,3.51-.92,1.08-1.44,2.43-2.29,3.57a3.77,3.77,0,0,1-3.59,1.77l-2.36.15a5.25,5.25,0,0,1-1.71-1.07c-1-1-1.8-2.2-2.88-3.1-1.59-1.3-3.68-1.75-5.57-2.55a13.63,13.63,0,0,1-7.45-7.39,11,11,0,0,1,1.14-10.27,12.93,12.93,0,0,1,7.37-4.61,31,31,0,0,1,8.08-.89,56.28,56.28,0,0,1,9.19-.84,12.92,12.92,0,0,1,8.08,3.21A11,11,0,0,1,430,158.25Z" transform="translate(-161.82 -62.57)"/><path class="cls-4" d="M358.26,98.38c1.34-1.06,2.89-1.94,4.29-2.93s2.77-1.88,4.19-2.76a60.82,60.82,0,0,1,8.71-4.41A58.48,58.48,0,0,1,394.69,84c1.38-.07,1.39-2.21,0-2.14a60.67,60.67,0,0,0-20.13,4.52,59.22,59.22,0,0,0-9.14,4.77,50.45,50.45,0,0,0-4.14,3,42,42,0,0,0-3.68,3.63c-.43.44.2,1,.66.66Z" transform="translate(-161.82 -62.57)"/><path class="cls-4" d="M454.2,88c-2.57-3-6.58-4.86-10.16-6.35a45.88,45.88,0,0,0-11.61-3.13,50.52,50.52,0,0,0-12.53,0c-4.29.47-8.87,1.07-13-.55A11.13,11.13,0,0,1,400,68a1,1,0,0,0-2,0A12.24,12.24,0,0,0,402.63,78c3.24,2.64,7.52,3.34,11.6,3.22,4.64-.14,9.2-1.08,13.87-.89a44.14,44.14,0,0,1,12.41,2.33,45.25,45.25,0,0,1,6.48,2.8c2.18,1.14,4.17,2.58,6.38,3.64A.69.69,0,0,0,454.2,88Z" transform="translate(-161.82 -62.57)"/><path class="cls-4" d="M400.67,78.52a21.33,21.33,0,0,1-8.22-14.91c-.15-1.35-2.17-1.42-2.16,0A19.25,19.25,0,0,0,400,79.71c.79.46,1.4-.67.7-1.19Z" transform="translate(-161.82 -62.57)"/><path class="cls-4" d="M396.81,79.22a20.12,20.12,0,0,1-10-3.35,1.09,1.09,0,0,0-1.47.39,1.08,1.08,0,0,0,.39,1.46,17.9,17.9,0,0,0,11.06,3,.78.78,0,0,0,0-1.55Z" transform="translate(-161.82 -62.57)"/><path class="cls-4" d="M371.21,256.12a16.84,16.84,0,0,0-5.85-6.21,19.51,19.51,0,0,0-3.83-1.83,10.82,10.82,0,0,0-4.37-.83,1.08,1.08,0,0,0-.28,2.12c1.22.38,2.51.48,3.73.88a17.3,17.3,0,0,1,3.51,1.58,19.66,19.66,0,0,1,5.74,5.08.78.78,0,0,0,1.35-.79Z" transform="translate(-161.82 -62.57)"/><path class="cls-4" d="M360.39,257.19a19.31,19.31,0,0,0-6.14-.89,21.53,21.53,0,0,0-6.15,1.17,21.93,21.93,0,0,0-10,7c-4.87,6.09-7.07,16.14-2.05,22.82,2.67,3.56,7.53,5.42,11.68,3.38,1.12-.55.34-2.37-.84-2a8.05,8.05,0,0,1-8.48-2.78c-2.25-2.79-2.75-6.6-2.38-10.07a19.82,19.82,0,0,1,11.81-16.06,22.71,22.71,0,0,1,12.23-1.4.62.62,0,0,0,.32-1.19Z" transform="translate(-161.82 -62.57)"/><path class="cls-4" d="M350.69,277.88a8.22,8.22,0,0,0-1.75,1.53,7.7,7.7,0,0,0-1.24,2.2,9.2,9.2,0,0,0-.31,5,9,9,0,0,0,6.85,6.75,8.27,8.27,0,0,0,5.69-.57,1.22,1.22,0,0,0-.93-2.23c-3,.86-6.51.16-8.29-2.62a7.12,7.12,0,0,1-1-4.56,8.56,8.56,0,0,1,1.76-4.44c.45-.52-.15-1.48-.8-1Z" transform="translate(-161.82 -62.57)"/><path class="cls-4" d="M364.28,280.87a8.62,8.62,0,0,0-2.3,3.24,7.48,7.48,0,0,0-.17,4.14,7.93,7.93,0,0,0,5.58,5.77,8.24,8.24,0,0,0,4.12.22,15.86,15.86,0,0,0,4.35-2c3.05-1.71,6.62-2,9.82-3.36,3-1.24,5.6-4,5.71-7.31a.77.77,0,0,0-1.54,0c.18,4-4,5.38-7.19,6-1.68.33-3.39.49-5.05.92a20.35,20.35,0,0,0-4.73,2.2,5.85,5.85,0,0,1-7.41-.89,6.56,6.56,0,0,1-.21-7.91c.57-.67-.33-1.61-1-1Z" transform="translate(-161.82 -62.57)"/><path class="cls-4" d="M392.45,277.79a24.05,24.05,0,0,0,.12-4.16,18.27,18.27,0,0,0-.89-3.87,21.74,21.74,0,0,0-4.1-7,20.69,20.69,0,0,0-13.52-7.21c-1.35-.1-1.6,2-.32,2.34,4.56,1.18,8.66,3.06,11.83,6.65a20.09,20.09,0,0,1,3.64,6.1,27.19,27.19,0,0,1,1,3.32,18.37,18.37,0,0,1,.77,3.85.72.72,0,0,0,1.43,0Z" transform="translate(-161.82 -62.57)"/><path class="cls-4" d="M364.37,209.64a61.29,61.29,0,0,1-4.53,8.5c-1.72,2.79-3.64,5.43-5.51,8.12-3.62,5.22-7.11,10.8-8.32,17.13-.64,3.35-.86,7.29.64,10.45a1.13,1.13,0,0,0,2.1-.57,40.54,40.54,0,0,1-.52-5.72,22.56,22.56,0,0,1,.91-5.77,40.86,40.86,0,0,1,5.25-10.84c2.19-3.4,4.59-6.67,6.73-10.1A33.58,33.58,0,0,0,365.77,210a.73.73,0,0,0-1.4-.39Z" transform="translate(-161.82 -62.57)"/><path class="cls-4" d="M362,207.6a20.27,20.27,0,0,1-1.49,3,29.14,29.14,0,0,1-1.8,2.77,19.11,19.11,0,0,1-4.73,4.46c-1,.69-.08,2.34,1,1.67a19.2,19.2,0,0,0,5.29-5,14.92,14.92,0,0,0,1.74-3.15,17.54,17.54,0,0,0,1-3.49.5.5,0,0,0-1-.26Z" transform="translate(-161.82 -62.57)"/><path class="cls-4" d="M395.57,196.92c.34,3.19.87,6.36,1.24,9.55a61.35,61.35,0,0,0,1.47,9c1.44,5.33,4.37,10.25,9.71,12.35,5.15,2,11.33,1.2,16.41-.65,5.32-1.92,10.25-5.57,12.12-11.12,1.17-3.5.85-7.29.65-10.92-.2-4-.37-7.92-.75-11.86-.1-1.06-1.69-1.11-1.69,0,0,3.27.2,6.54.36,9.81a61.89,61.89,0,0,1,.18,9.13c-.54,5.69-4.45,9.87-9.47,12.2-4.75,2.2-10.59,3.34-15.67,1.67-4.86-1.6-7.7-6-9.08-10.71a62.14,62.14,0,0,1-1.67-9.09c-.46-3.3-.92-6.8-2.75-9.67-.27-.44-1.12-.31-1.06.28Z" transform="translate(-161.82 -62.57)"/><path class="cls-4" d="M413.75,187.24c.4,2.76,1,5.5,1.32,8.27a68.83,68.83,0,0,1,.52,8.25,1,1,0,0,0,2,0c0-5.65-.67-11.67-2.9-16.9-.23-.56-1-.12-.89.38Z" transform="translate(-161.82 -62.57)"/><path class="cls-4" d="M387.18,139.35c1,9.75-11.9,10.93-12.68,1.15C373.5,130.76,386.41,129.58,387.18,139.35Z" transform="translate(-161.82 -62.57)"/><path class="cls-4" d="M446.14,133.88c1,9.75-11.9,10.93-12.68,1.16C432.46,125.29,445.37,124.11,446.14,133.88Z" transform="translate(-161.82 -62.57)"/><path class="cls-4" d="M371.38,128.54a3,3,0,0,0,1.32-.7c.4-.32.72-.55,1.13-.87a17.29,17.29,0,0,1,2.11-1.44c.39-.23.78-.44,1.19-.63l.6-.29.34-.16.07,0c.43-.18.88-.34,1.32-.48a10.49,10.49,0,0,0,1.55-.53,1.43,1.43,0,0,0-.72-2.65,9.48,9.48,0,0,0-3.25,1.06,15.67,15.67,0,0,0-2.54,1.39,19.29,19.29,0,0,0-2.43,1.89,4.39,4.39,0,0,0-1.69,2.68.8.8,0,0,0,1,.76Z" transform="translate(-161.82 -62.57)"/><path class="cls-4" d="M445.43,121.36c.31-1-.89-1.71-1.61-2.1a16,16,0,0,0-2.48-1.07,18.59,18.59,0,0,0-2.33-.62,13.93,13.93,0,0,0-2.8-.35,1.48,1.48,0,0,0-1.45,1.28,1.45,1.45,0,0,0,1.06,1.62c.48.08,1,.11,1.44.17.09,0,.22,0,.06,0l.3,0,.6.09a22.5,22.5,0,0,1,2.43.56c.77.23,1.54.46,2.3.72s2.16.72,2.48-.35Z" transform="translate(-161.82 -62.57)"/><path class="cls-4" d="M465.06,253.93a20.23,20.23,0,0,1,3.7-.92c.58-.09,1.18-.15,1.77-.19a11.29,11.29,0,0,0,2-.17.89.89,0,0,0,0-1.69,5.56,5.56,0,0,0-2.15-.1,16.13,16.13,0,0,0-2.07.3,17,17,0,0,0-3.86,1.35c-.79.36-.23,1.72.6,1.42Z" transform="translate(-161.82 -62.57)"/><path class="cls-4" d="M468.61,256.34a23.1,23.1,0,0,1,10.79.87,19.12,19.12,0,0,1,8.81,6c4.15,5.1,6.39,13.43,2.87,19.44a8.19,8.19,0,0,1-9.29,4c-1.17-.36-2,1.45-.85,2a9.38,9.38,0,0,0,10.64-2.15c3-3,4-7.48,3.81-11.58A22.17,22.17,0,0,0,482.08,256a22.88,22.88,0,0,0-6.66-1.68,18.76,18.76,0,0,0-7.14.82.62.62,0,0,0,.33,1.19Z" transform="translate(-161.82 -62.57)"/><path class="cls-4" d="M477.19,276.86a8.55,8.55,0,0,1,1.75,4.44,7.1,7.1,0,0,1-1,4.57c-1.78,2.78-5.28,3.47-8.28,2.62a1.22,1.22,0,0,0-.94,2.22c3.09,1.6,7,.76,9.61-1.36a8.84,8.84,0,0,0,2.81-9.17,7.22,7.22,0,0,0-1.16-2.46,8.59,8.59,0,0,0-2-1.88c-.64-.46-1.25.5-.79,1Z" transform="translate(-161.82 -62.57)"/><path class="cls-4" d="M463.42,279.81a6.59,6.59,0,0,1-.21,7.92c-2,2.17-4.93,2.26-7.42.88a19.66,19.66,0,0,0-4.72-2.19c-1.67-.44-3.37-.6-5.06-.93-3.15-.62-7.36-2-7.19-6,.05-1-1.57-1-1.54,0,.1,3,2.1,5.11,4.52,6.67,2.87,1.85,6.62,2,9.73,3.35,1.54.66,2.88,1.69,4.44,2.31a7.73,7.73,0,0,0,4.2.41,8.15,8.15,0,0,0,6.34-4.91,7.24,7.24,0,0,0-2.11-8.5c-.65-.63-1.56.31-1,1Z" transform="translate(-161.82 -62.57)"/><path class="cls-4" d="M437.66,275.76a17.33,17.33,0,0,1,.72-3.69,28.71,28.71,0,0,1,1.08-3.49,20.12,20.12,0,0,1,3.65-6.1c3.16-3.59,7.26-5.47,11.82-6.65,1.27-.33,1.05-2.44-.32-2.34a20.75,20.75,0,0,0-13.52,7.21,21.64,21.64,0,0,0-4,6.85,17.71,17.71,0,0,0-.95,4,24.22,24.22,0,0,0,.11,4.17.72.72,0,0,0,1.44,0Z" transform="translate(-161.82 -62.57)"/><path class="cls-4" d="M465.47,216.62c1.15,1.11,2.13,2.39,3.23,3.55s2.15,2.21,3.2,3.34a88.75,88.75,0,0,1,6.18,7.1,37.82,37.82,0,0,1,7.6,16.4,26.55,26.55,0,0,1-.19,10.09,1.11,1.11,0,0,0,2.13.59c4-12.89-3.85-25.58-12.54-34.49-1.33-1.37-2.74-2.66-4.16-3.94s-3-2.34-4.47-3.62c-.66-.59-1.63.36-1,1Z" transform="translate(-161.82 -62.57)"/><path class="cls-2" d="M308.79,274.62c-1.75-.19-76.3.34-77.23-.17-3.38-11.79-16.42-25.18-11.77-37.34,8.91-5.36,20.63,3.8,30.81,1,23.56-.15,35.32-21.88,45.4-11.88C307.59,238.73,311,260,308.79,274.62Z" transform="translate(-161.82 -62.57)"/><path class="cls-5" d="M322,275c-2.41,8.78-15.25,11.79-19.83,3.26-3.11,5.15-11.27,4.51-13.64-1-14.4,5.59-14.33-19.14-3.16-23.35,18.19-4.46,22.17-5,12-23.47-17.52,21.43-52.07,23.77-74.72,9.27-.46,15.17,21.24,15.33,24.73,28.65,2.45,6.55-4.89,14.65-11.39,11-2.77,3.39-8.14,5.94-12.28,3.67a16.06,16.06,0,0,1-1.64-.47c-12.85,10.83-25-6.89-19.45-19.39,3.46-10.07,12.08-17.16,16.34-26.8-27.07-14.75-13.34-49.3-16.55-73.69-2.71-19.73-16.59-36-34.19-44.45C144,94,214.81,90.36,233.43,139.11l25.67-1.86c-6.48-54.57,68.28-78.69,48.76-45-12.79,10.41-20.56,26.51-18.29,43.18,1,19,19.15,29.13,25.55,45.67a38,38,0,0,1-13.43,43.16C301.93,243.61,328,254.92,322,275Z" transform="translate(-161.82 -62.57)"/><path class="cls-2" d="M299.08,213.37c-3.8,6.39-11.48,6.52-18,7-7,9.62-24.62,14.33-34.38,7.92C220,243,208.64,210.18,228.82,195c.07-21.51,29.07-27,3.56-53.4-1.38-1.59,2.07-2.1,3-2.61,41.36-16.18,4.83,21.45,32.76,32.61,17.31,4.77,11,13.39,26,18.45h0C301,194.82,303.74,205.9,299.08,213.37Z" transform="translate(-161.82 -62.57)"/><path class="cls-3" d="M284,217.46a38,38,0,0,1-15.24-11.72,33.23,33.23,0,0,1-6.17-15.93c-3.2,4-8.12,6.34-13.1,3.22a35.65,35.65,0,0,1,1.17,5.85c.79,6.78.36,14.26-2.38,20.57a22.79,22.79,0,0,1-6,8,21.11,21.11,0,0,1-8,4.74c10.53,2.8,24.89-18,23.22-33.89,5.81,14,24.4,29.84,33.41,21.12A27,27,0,0,1,284,217.46Z" transform="translate(-161.82 -62.57)"/><path class="cls-4" d="M230,177.55c2.15,10.23-11,12.84-12.94,2.57C214.86,169.9,228,167.28,230,177.55Z" transform="translate(-161.82 -62.57)"/><path class="cls-4" d="M275.36,168.11c1.92,10.27,15.1,7.65,12.94-2.57C286.38,155.26,273.21,157.88,275.36,168.11Z" transform="translate(-161.82 -62.57)"/><path class="cls-3" d="M312.65,85.4c-8.66,24,13.19,65.43-11.84,76-3.45-8.62-13.44-12.49-16.83-21.15C278.31,119.38,289.29,85.57,312.65,85.4Z" transform="translate(-161.82 -62.57)"/><path class="cls-3" d="M209,145.77c4.42,6.32-3.27,41-10.84,34.3-23.11-12.64-17.73-44.13-32.8-62.92-.86-6.33,7.94-3.32,11.39-2.48C191.7,118.88,204.37,130.85,209,145.77Z" transform="translate(-161.82 -62.57)"/><path class="cls-4" d="M208.29,162.35c-.55,1.63-1.28,3.19-1.86,4.81s-1,3.27-1.54,4.9c-1,3.32-1.95,6.66-2.89,10-1.82,6.48-3.45,13.11-3.54,19.87a41.39,41.39,0,0,0,14,31.44,42.43,42.43,0,0,0,16.42,8.9,1.05,1.05,0,0,0,.56-2,39.2,39.2,0,0,1-24.38-20.58,39.75,39.75,0,0,1-3.9-16.53c-.09-6.47,1.4-12.78,3.07-19,1-3.54,2-7,2.92-10.61.44-1.72.92-3.43,1.32-5.17s.62-3.79,1.05-5.67a.64.64,0,0,0-1.23-.34Z" transform="translate(-161.82 -62.57)"/><path class="cls-4" d="M256.39,196.08c.12-.29-.18.36-.16.32a9.45,9.45,0,0,0-.27,1.69c-.29,1.61-.41,3.25-.57,4.88a49.42,49.42,0,0,1-1.92,11.27,25.92,25.92,0,0,1-8,11.37c-3.84,3.21-9,5.76-14.08,5.44s-10.27-4.3-10.59-9.71c-.07-1.28-2.08-1.29-2,0,.32,5,4,9.08,8.52,10.86,5.39,2.1,11.82.86,16.71-1.94a27.58,27.58,0,0,0,10.72-11.32A34.74,34.74,0,0,0,258,205.63a43.18,43.18,0,0,0,.18-6.53,10.53,10.53,0,0,0-.5-3,.69.69,0,0,0-1.31,0Z" transform="translate(-161.82 -62.57)"/><path class="cls-4" d="M219.3,216.74a9.8,9.8,0,0,1-.43-5.36,12.79,12.79,0,0,1,2.24-5c2.38-3.29,6-5.42,9.33-7.66.88-.6.09-2-.84-1.45-3.89,2.34-8.11,4.65-10.79,8.44a12.72,12.72,0,0,0-2.26,5.95,9.85,9.85,0,0,0,.1,3,7.22,7.22,0,0,0,1.44,2.84.7.7,0,0,0,1.21-.71Z" transform="translate(-161.82 -62.57)"/><path class="cls-4" d="M233.88,139.06c-2.68-11-10.4-20.65-19.25-27.41a57.69,57.69,0,0,0-34.52-11.72c-5.18,0-11.84.17-15.73,4.14a9.49,9.49,0,0,0-2.5,7.69c.34,3.15,1.82,5.92,3.41,8.6a93.17,93.17,0,0,1,8.43,18.11c2.1,6.28,3.33,12.8,5.2,19.14,3.1,10.52,9.21,22.07,20.73,25a20.35,20.35,0,0,0,4,.58c1.61.08,1.61-2.44,0-2.51-11-.54-18.13-11-21.38-20.49-2-5.83-3.18-11.88-4.84-17.8a92.16,92.16,0,0,0-6.82-17.4c-1.38-2.7-3-5.25-4.45-7.93-1.36-2.53-2.53-5.63-1.65-8.52,1.51-5,8.32-5.39,12.59-5.59a54.75,54.75,0,0,1,46.25,21.31,78.72,78.72,0,0,1,8.95,15.48c.43.94,1.85.26,1.62-.69Z" transform="translate(-161.82 -62.57)"/><path class="cls-4" d="M213.88,152a56.68,56.68,0,0,1-4.71-7.76,60.3,60.3,0,0,1-3.23-8.45,1.22,1.22,0,0,0-2.36.65,35.86,35.86,0,0,0,3.47,8.88,37.11,37.11,0,0,0,5.46,7.73c.66.72,2-.24,1.37-1.05Z" transform="translate(-161.82 -62.57)"/><path class="cls-4" d="M209.65,153.81c-1.17-1.62-2.29-3.28-3.48-4.9s-2.36-3.36-3.68-4.9c-.83-1-2.51.3-1.78,1.37,1.15,1.67,2.51,3.24,3.79,4.82s2.57,3.07,3.85,4.62c.59.72,1.85-.24,1.3-1Z" transform="translate(-161.82 -62.57)"/><path class="cls-4" d="M206.91,154.54c-1,.37-2.09.7-3.14,1s-2.07.76-3.1,1.14a1.16,1.16,0,1,0,.61,2.24c1.08-.43,2.18-.83,3.24-1.31s1.9-.87,2.89-1.28a1,1,0,0,0,.67-1.17,1,1,0,0,0-1.17-.66Z" transform="translate(-161.82 -62.57)"/><path class="cls-4" d="M205.87,160.75c-.36.09-.73.14-1.09.24a6.92,6.92,0,0,0-1.14.45,9.6,9.6,0,0,0-2,1.3,10,10,0,0,0-2.77,3.63,1.16,1.16,0,0,0,.41,1.56,1.14,1.14,0,0,0,1.56-.41,12.68,12.68,0,0,1,1.05-1.77c0-.08.11-.15.17-.23-.16.21,0,0,.05-.06l.3-.36c.24-.27.5-.52.76-.77s.5-.47.76-.69l.18-.14.09-.07.42-.3c.28-.2.58-.37.86-.57a5,5,0,0,1,.92-.55.68.68,0,0,0,.28-.86.69.69,0,0,0-.82-.4Z" transform="translate(-161.82 -62.57)"/><path class="cls-4" d="M223.77,145.33c.81-.46,1.79-.71,2.65-1.1l2.59-1.18c1.74-.78,3.5-1.52,5.3-2.16a65,65,0,0,1,11-2.88,62.35,62.35,0,0,1,11.33-.87q2.83,0,5.66.35c1.87.2,3.73.67,5.61.8,1.39.1,1.53-1.92.31-2.33a24.34,24.34,0,0,0-4.51-.8c-1.53-.19-3.06-.33-4.59-.41a61.56,61.56,0,0,0-9.21.18,63.72,63.72,0,0,0-17.69,4.22,49.55,49.55,0,0,0-4.64,2.1c-.73.38-1.45.79-2.15,1.23s-1.49,1.2-2.28,1.71a.66.66,0,0,0,.66,1.14Z" transform="translate(-161.82 -62.57)"/><path class="cls-4" d="M244.34,228.06a8.16,8.16,0,0,0,1,1.79,7.77,7.77,0,0,0,1.41,1.13,14.14,14.14,0,0,0,3.6,1.53,28.83,28.83,0,0,0,8.72,1.08,32.54,32.54,0,0,0,8.54-1.3c2.71-.79,5.92-1.85,8-3.84.77-.73,0-2.22-1.07-1.84-2.44.87-4.63,2.28-7.13,3.06a30.2,30.2,0,0,1-7.66,1.36,30.7,30.7,0,0,1-7.59-.61,18.42,18.42,0,0,1-3.44-.94,9.86,9.86,0,0,1-1.68-.86,6.59,6.59,0,0,1-1.65-1.2.63.63,0,0,0-1.09.64Z" transform="translate(-161.82 -62.57)"/><path class="cls-4" d="M217.53,235.84a25.56,25.56,0,0,0-2,4.22c-.71,1.42-1.53,2.78-2.37,4.12-1.71,2.72-3.68,5.27-5.6,7.85-3.77,5-7.5,10.44-8.57,16.79-.57,3.33-.52,7.15,1.22,10.15a1,1,0,0,0,1.86-.78,23.79,23.79,0,0,1-.77-5.63,21.29,21.29,0,0,1,.89-5.66,36.89,36.89,0,0,1,5.5-10.46c2.28-3.26,4.79-6.35,6.95-9.69a35.59,35.59,0,0,0,2.82-5.14c.71-1.58,1.68-3.63,1.46-5.4a.75.75,0,0,0-1.38-.37Z" transform="translate(-161.82 -62.57)"/><path class="cls-4" d="M203.26,282a14.2,14.2,0,0,0,1.53,2,7.34,7.34,0,0,0,2.1,1.48,9.59,9.59,0,0,0,5.07,1,1.05,1.05,0,0,0,1-1,1,1,0,0,0-1-1,8.9,8.9,0,0,1-4.15-.63,9.43,9.43,0,0,1-3.64-2.47c-.41-.51-1.27.15-.91.69Z" transform="translate(-161.82 -62.57)"/><path class="cls-4" d="M207,266.19c1.27-4.19,5.55-6.72,9.43-8.08,4.43-1.54,9.24-2.85,14-2.57a13.64,13.64,0,0,1,10.69,5.6,21.47,21.47,0,0,1,4.11,12.28c-.09,4.39-3.64,9.3-8.51,7.7-1.22-.4-1.74,1.51-.53,1.92,4.61,1.55,9.23-1.6,10.86-5.87,1.89-4.95.22-10.45-2.14-14.95a16.25,16.25,0,0,0-11.2-8.8c-5.53-1.14-11.21.29-16.47,2s-10.56,4.54-11.55,10.41a.69.69,0,0,0,1.34.36Z" transform="translate(-161.82 -62.57)"/><path class="cls-4" d="M232.44,274.68c1,1.65,2.15,3.87,1.61,5.85-.45,1.64-2.45,2.22-3.88,2.64-1.73.5-3.84,1.12-5.49.1a3.27,3.27,0,0,1-1.3-1.6,5.49,5.49,0,0,1-.2-2.25,1.15,1.15,0,0,0-2.12-.57,5.27,5.27,0,0,0,.61,5.34,6.15,6.15,0,0,0,5.5,2.47,17,17,0,0,0,6-1.55,5.5,5.5,0,0,0,3.36-4.76,6.68,6.68,0,0,0-.82-3.44,19,19,0,0,0-2.25-3c-.47-.59-1.43.18-1,.81Z" transform="translate(-161.82 -62.57)"/><path class="cls-4" d="M221.54,279.5a9.26,9.26,0,0,1-1.22,2.46,7.84,7.84,0,0,1-1.6,1.89,5.71,5.71,0,0,1-4.38,1.29,4.62,4.62,0,0,1-3.61-6.61,1.19,1.19,0,0,0-.69-1.42,1.23,1.23,0,0,0-1.51.49c-2.17,3-.67,7.65,2.36,9.49a8.08,8.08,0,0,0,10.2-1.66,8.32,8.32,0,0,0,1.55-2.69,7.53,7.53,0,0,0,.26-3.06.7.7,0,0,0-1.36-.18Z" transform="translate(-161.82 -62.57)"/><path class="cls-4" d="M215.28,169.57a8.88,8.88,0,0,0,2.15-1.09,19.55,19.55,0,0,1,2.18-1.13l.09,0,.27-.1.54-.2c.39-.13.77-.26,1.17-.37s.75-.19,1.13-.26l.64-.11c.24,0-.19,0,.05,0l.36,0a1.42,1.42,0,0,0,1.4-1.6,1.43,1.43,0,0,0-1.77-1.18,16.17,16.17,0,0,0-5.12,1.65,14.93,14.93,0,0,0-2.25,1.46,4.85,4.85,0,0,0-1.73,2.13.73.73,0,0,0,.89.89Z" transform="translate(-161.82 -62.57)"/><path class="cls-4" d="M288.51,146.5c.95,1.32,1.73,2.75,2.65,4.1s2.1,2.86,3.16,4.28c1.92,2.56,3.92,5.07,5.89,7.6a91.73,91.73,0,0,1,10,14.75,39.09,39.09,0,0,1-10.46,48.69c-1.06.85.43,2.32,1.48,1.49A41.84,41.84,0,0,0,317,197.76a40.79,40.79,0,0,0-3-18.56,70.06,70.06,0,0,0-9.75-15.85c-2.27-2.94-4.57-5.88-6.92-8.76-1.25-1.53-2.5-3.06-3.78-4.57s-2.77-2.81-4.06-4.3c-.47-.54-1.43.18-1,.78Z" transform="translate(-161.82 -62.57)"/><path class="cls-4" d="M269.87,192a4.85,4.85,0,0,1-3.53.88,3.49,3.49,0,0,1-2.73-2.27,3.91,3.91,0,0,1-.15-.83h-.19c-.19,1.43-5.08,5.76-6.43,5.26-1.06,1-6.71-.83-7.42-2.09l-.2,0a4.23,4.23,0,0,1,.2.87,3.51,3.51,0,0,1-1.66,3.15,4.87,4.87,0,0,1-3.61.53c-3.32-.72-5.51-4.34-5.29-7.74s2.4-6.44,5.14-8.45a30.9,30.9,0,0,1,9.29-4.17c3.39-.31,7.22-1,10.54-.19s6.48,2.78,8,5.84S272.68,190.05,269.87,192Z" transform="translate(-161.82 -62.57)"/><path class="cls-4" d="M256.35,195.84a8.92,8.92,0,0,0,.6,2.43,33.27,33.27,0,0,0,2.33,5.17c2.07,4,4.43,8.08,7.7,11.24,7.65,7.4,20.72,10.75,30,4.3,4.54-3.16,7.31-9.13,5.46-14.55-.41-1.21-2.35-.69-1.93.53,1.58,4.57-.64,9.64-4.55,12.26-4.1,2.75-9.51,2.89-14.2,1.86A26.48,26.48,0,0,1,269,212.4c-2.95-2.82-5-6.41-7-9.92-1-1.7-1.85-3.48-3-5.08a11.39,11.39,0,0,0-1.52-2,.69.69,0,0,0-1.16.48Z" transform="translate(-161.82 -62.57)"/><path class="cls-4" d="M301.57,200.53a8.47,8.47,0,0,0,.3-3,9,9,0,0,0-1-2.9,12.68,12.68,0,0,0-4.18-4.64c-3.87-2.66-8.86-3.15-13.37-3.83-1-.16-1.52,1.39-.45,1.61,4,.83,8.32,1.44,11.87,3.68a12,12,0,0,1,3.84,3.74,9.79,9.79,0,0,1,1.58,5.11.71.71,0,0,0,1.39.19Z" transform="translate(-161.82 -62.57)"/><path class="cls-4" d="M258.79,133.94A79.22,79.22,0,0,1,261,116.73a54.66,54.66,0,0,1,30.79-36.2,49.64,49.64,0,0,1,7.37-2.7c2.39-.66,5.09-1.14,7.52-.37,6.2,2,4.54,10.24,3.91,15a90.37,90.37,0,0,0-.5,19.45c.54,6.47,1.88,12.84,2.49,19.3.6,6.19.41,12.34-1.8,18.21-1.87,4.95-5.22,9.32-10.07,11.61-1.46.69-.19,2.85,1.27,2.16,9.89-4.67,13.42-16.38,13.29-26.55-.09-7-1.53-13.81-2.4-20.7a91.52,91.52,0,0,1-.26-20.86c.62-5.93,2.65-12.76-1.76-17.78-3.94-4.5-10.7-3-15.61-1.3a57.64,57.64,0,0,0-27.15,19.65,56,56,0,0,0-11.51,34,31.29,31.29,0,0,0,.43,4.54c.15,1,1.7.72,1.74-.23Z" transform="translate(-161.82 -62.57)"/><path class="cls-4" d="M282.13,138.65A37.37,37.37,0,0,0,284,119.82a1.23,1.23,0,0,0-2.4.32,63.61,63.61,0,0,1,.26,9,54.65,54.65,0,0,1-1.37,9,.87.87,0,0,0,1.68.46Z" transform="translate(-161.82 -62.57)"/><path class="cls-4" d="M286.67,138.74c.58-1.89,1.21-3.77,1.77-5.68s1.21-3.79,1.61-5.72a1.13,1.13,0,0,0-2.18-.6c-.61,1.87-1,3.84-1.48,5.76s-.87,3.87-1.32,5.8a.83.83,0,0,0,1.6.44Z" transform="translate(-161.82 -62.57)"/><path class="cls-4" d="M288,139.92c1.1,0,2.2,0,3.31.08s2.21,0,3.31,0a1.16,1.16,0,1,0,0-2.32c-1.1,0-2.21,0-3.31.13s-2.21.19-3.31.25a.95.95,0,1,0,0,1.89Z" transform="translate(-161.82 -62.57)"/><path class="cls-4" d="M291.28,144.75a9.36,9.36,0,0,1,1.89.33,14.18,14.18,0,0,1,1.95.59,11.52,11.52,0,0,1,3.18,1.94,1.17,1.17,0,0,0,1.62,0,1.15,1.15,0,0,0,0-1.61,10.71,10.71,0,0,0-4.15-2.44,9.74,9.74,0,0,0-2.33-.41,13.28,13.28,0,0,0-2.35.24c-.79.11-.57,1.35.19,1.36Z" transform="translate(-161.82 -62.57)"/><path class="cls-4" d="M286.29,153.89a4.83,4.83,0,0,0-2.35-1.24,13.82,13.82,0,0,0-2.79-.49,16.18,16.18,0,0,0-5.41.47,1.42,1.42,0,1,0,.76,2.74,15,15,0,0,1,4.57-.64,21.19,21.19,0,0,1,2.39.19,9.08,9.08,0,0,0,2.32.21.74.74,0,0,0,.51-1.24Z" transform="translate(-161.82 -62.57)"/><path class="cls-4" d="M304.89,233.36c-.21,1.77.76,3.81,1.46,5.4a36.68,36.68,0,0,0,2.82,5.14c2.17,3.34,4.67,6.43,6.95,9.68a36.52,36.52,0,0,1,5.5,10.46,21.86,21.86,0,0,1,.9,5.67,23.72,23.72,0,0,1-.78,5.62,1,1,0,0,0,1.87.79c3.12-5.4,1.19-12.67-1.42-17.85-2.89-5.75-7.3-10.52-10.84-15.86-1-1.48-1.91-3-2.73-4.56-.39-.75-.76-1.52-1.11-2.29a14.9,14.9,0,0,0-1.23-2.58.75.75,0,0,0-1.39.38Z" transform="translate(-161.82 -62.57)"/><path class="cls-4" d="M319.64,278.45a9.5,9.5,0,0,1-3.64,2.47,8.93,8.93,0,0,1-4.15.64,1,1,0,0,0-1,1,1.06,1.06,0,0,0,1,1,9.65,9.65,0,0,0,5.06-1,7.32,7.32,0,0,0,2.06-1.43,13.42,13.42,0,0,0,1.57-2c.36-.54-.49-1.21-.9-.7Z" transform="translate(-161.82 -62.57)"/><path class="cls-4" d="M318.18,263c-.87-5.16-5.2-8.08-9.81-9.8-5.06-1.9-10.88-3.53-16.32-2.9a17.41,17.41,0,0,0-7.05,2.27,16.36,16.36,0,0,0-5.11,5.23c-2.73,4.28-4.67,9.87-3.54,15s6,9.24,11.34,7.46c1.2-.4.69-2.31-.53-1.91-4.26,1.39-7.67-2.3-8.38-6.22-.76-4.24,1-8.91,3.16-12.5a13.62,13.62,0,0,1,9.93-6.72c4.72-.7,9.49.54,14,1.92s9.55,3.78,11,8.59a.69.69,0,0,0,1.33-.37Z" transform="translate(-161.82 -62.57)"/><path class="cls-4" d="M290.32,271a24.27,24.27,0,0,0-2,2.54,7.47,7.47,0,0,0-1.08,3.1,5.39,5.39,0,0,0,2.66,5.23,15.65,15.65,0,0,0,5.66,1.81,6.67,6.67,0,0,0,6-1.67c1.39-1.52,2.26-4.13,1.16-6a1.15,1.15,0,0,0-2.12.58,5.69,5.69,0,0,1-.19,2.25,3.42,3.42,0,0,1-1.3,1.6c-1.66,1-3.77.4-5.49-.11-1.43-.42-3.44-1-3.88-2.63-.54-2,.61-4.21,1.61-5.85.38-.63-.57-1.42-1.05-.81Z" transform="translate(-161.82 -62.57)"/><path class="cls-4" d="M300.91,276.83a7.22,7.22,0,0,0,1.3,5.09,8,8,0,0,0,4.56,3.2,8.52,8.52,0,0,0,5.58-.59,7,7,0,0,0,3.53-4,6.47,6.47,0,0,0-.61-5.74,1.23,1.23,0,0,0-1.5-.49,1.2,1.2,0,0,0-.7,1.42,4.88,4.88,0,0,1-.15,4.32,4.76,4.76,0,0,1-3.45,2.29,5.71,5.71,0,0,1-4.39-1.28,8.07,8.07,0,0,1-1.6-1.89,9.6,9.6,0,0,1-1.21-2.47.7.7,0,0,0-1.36.19Z" transform="translate(-161.82 -62.57)"/><path class="cls-5" d="M659.22,173.89c2.86-13.77,3.71-30.1.86-49.89.51-7.38-4.57-18.66-11.26-25.92a1.43,1.43,0,0,0-.54-1.14c-4-3.55-8.7-7.47-14.44-7a10.08,10.08,0,0,0-6.42,2.73,9.49,9.49,0,0,0-2.49,7.36c.35,5.78,3.45,11.23,6.24,16.16,1.33,2.34,2.62,4.69,3.82,7.08.5,1.33,1,2.66,1.45,4,4.61,13,8.11,26.31,6.46,40C647.15,171.28,653,173.44,659.22,173.89Z" transform="translate(-161.82 -62.57)"/><path class="cls-2" d="M642.9,167.23c-1.14,9.38-4.7,18.92-12,28.65,2-5.64-7.14-20-3.28-23.18,0-.19-.09-.36-.14-.56,4.21-4.8,6.58-10.89,8-17.06a68.55,68.55,0,0,0,1.82-22.42,21.85,21.85,0,0,0-1.13-5.3,13.23,13.23,0,0,0-2.73-4.61c-2.21-6.65-23.47,2.9-27.51,5.07-5.3,3.74-10.1,7.55-15.19,9.77-.23.3-.47.58-.73.86-2.69,2.85-6.38,2-9.78,1.18-.44-.11-.89-.21-1.34-.3s-1.08-.19-1.64-.32a45.51,45.51,0,0,0-7.54-.72c2.36,18.78-2.63,38.22-17.75,50.53-12.54,10.88-33.45,15.89-47.67,4.18a58.89,58.89,0,0,1-4.68-5.2c-4.17,18.22.09,39.55,20.67,43.85A35.49,35.49,0,0,0,517,253.38c-25.8,7.3-5.16,40.89,13.76,24.75,3.3,3.06,9,2.24,11.77-1.16.52,4.53,7.57-.56,8.19-3.08l31.4.22c5,5.21,14.38,6,20.42,1.86a11.4,11.4,0,0,0,14.13,4.35c8.1,2.89,13.53-7,12.33-14-18.09-25.81,19.73-41.76,30.24-92.42C653,173.44,647.15,171.28,642.9,167.23Z" transform="translate(-161.82 -62.57)"/><path class="cls-6" d="M552,188.82c15.12-12.31,20.11-31.75,17.75-50.53-.49,0-1,0-1.45,0-3.76.08-7.64,1.2-11.21-.52-2.43-1.18-3.82-3.55-5.78-5.26-9.69-6.38-18.06-16.95-30.65-20a1.49,1.49,0,0,0-.3-.51,4.23,4.23,0,0,0-4.64-1,6.32,6.32,0,0,0-3.5,3.91,49.49,49.49,0,0,0-1.71,5.88c-.57,2.19-1.07,4.4-1.51,6.61-1.59,8.16-2.53,16.92-1.07,25.16a18.38,18.38,0,0,0,3.38,8.16c-2.61,4.59-4.75,9.51-6.72,13.59a54.32,54.32,0,0,0-4.94,13.47,58.89,58.89,0,0,0,4.68,5.2C518.53,204.71,539.44,199.7,552,188.82Z" transform="translate(-161.82 -62.57)"/><path class="cls-3" d="M620.94,159.53a15.92,15.92,0,0,1,4.82,6.55c.46-.8.92-1.6,1.37-2.35,6.55-10.86,10.78-26.26,2.76-37.45a20.54,20.54,0,0,0-3.4,1.13c-7.46,3.21-13.35,9.8-17,17.18a28.76,28.76,0,0,0-1.61,10.13C612.56,155.24,617.15,156.56,620.94,159.53Z" transform="translate(-161.82 -62.57)"/><path class="cls-3" d="M533.83,136.88a24.41,24.41,0,0,0-2.62-7.91,41.38,41.38,0,0,0-4.72-7.53,18.61,18.61,0,0,0-7-5.54c-1.26-.56-2.57-1-3.87-1.47a.94.94,0,0,1-.06.15,59,59,0,0,0-6.18,19.57,80.66,80.66,0,0,0,.34,10.08,81.82,81.82,0,0,0,2.25,12c.12.48.22,1,.31,1.57a31.19,31.19,0,0,1,12.92-9.53,45,45,0,0,1,7.26-2.2A19,19,0,0,0,533.83,136.88Z" transform="translate(-161.82 -62.57)"/><path class="cls-4" d="M514.29,152.81a92.46,92.46,0,0,1-4.21,9.37c-1.42,3-2.92,6-4.38,8.95-3,6.12-5.93,12.34-7.66,19a39.4,39.4,0,0,0-.68,19,34,34,0,0,0,7.22,14,31.65,31.65,0,0,0,14.73,10c1.48.44,2-1.75.62-2.28a32.38,32.38,0,0,1-19.88-21.36c-3.43-12.49,2-25.18,7.36-36.26,1.58-3.28,3.19-6.55,4.64-9.89a85.45,85.45,0,0,0,3.43-10.2.62.62,0,0,0-1.19-.33Z" transform="translate(-161.82 -62.57)"/><path class="cls-4" d="M556.3,138.34c-1.29-3-3.64-5.62-5.79-8.06a68.78,68.78,0,0,0-7.18-7,73.74,73.74,0,0,0-16.69-10.66q-2.25-1-4.58-1.94a14.59,14.59,0,0,0-4.89-1.22c-3.55-.09-5.46,2.63-6.56,5.65A94.18,94.18,0,0,0,505,137.68c-.77,7.76.19,16.39,4.55,23a1.21,1.21,0,0,0,2.09-1.22,35,35,0,0,1-4.36-18.74c.25-7.29,2.26-14.4,4.43-21.31.76-2.43,1.45-6.93,4.45-7.6,1.61-.36,3.36.34,4.85.89s2.82,1.11,4.2,1.74a72.79,72.79,0,0,1,15.63,9.68,76.69,76.69,0,0,1,7.58,7.06c2.4,2.54,4.38,5.49,6.88,7.91.57.56,1.32-.14,1-.79Z" transform="translate(-161.82 -62.57)"/><path class="cls-4" d="M531.3,146.42a25.62,25.62,0,0,0-5.15-6A34.57,34.57,0,0,0,523,138a15.87,15.87,0,0,0-3.61-2c-1.15-.4-1.66,1.22-.78,1.84s2.16,1.27,3.22,2a31.37,31.37,0,0,1,2.95,2.2,45.13,45.13,0,0,1,5.26,5.36c.58.68,1.68-.19,1.23-.94Z" transform="translate(-161.82 -62.57)"/><path class="cls-4" d="M526.35,145.79l-3.9-.71c-.64-.11-1.28-.2-1.93-.29a4.88,4.88,0,0,0-2.24-.13,1,1,0,0,0-.23,1.74,4.87,4.87,0,0,0,2.12.46c.67.09,1.34.18,2,.24l4,.37c1,.09,1.17-1.51.22-1.68Z" transform="translate(-161.82 -62.57)"/><path class="cls-4" d="M522,147.87l-2.62.36-1.29.18a7.25,7.25,0,0,0-1.31.27,1,1,0,0,0,.27,2,8.6,8.6,0,0,0,1.51-.16c.44-.06.89-.14,1.33-.22l2.65-.44a1,1,0,0,0,.71-1.26,1,1,0,0,0-1.25-.71Z" transform="translate(-161.82 -62.57)"/><path class="cls-4" d="M541.37,280.46c3.38.71,7.3.3,9.62-2.56a10.48,10.48,0,0,0,1.32-10c-2.32-6.71-8.13-12.21-14.55-15a28.08,28.08,0,0,0-22.08-.08c-6.52,2.77-12,8.32-12.88,15.59a13.77,13.77,0,0,0,3.4,11,11.94,11.94,0,0,0,10,3.85c1.56-.19,1.58-2.66,0-2.47-6.14.75-10.93-4.58-11-10.47-.06-6.33,4.25-11.46,9.61-14.32a25.18,25.18,0,0,1,33,8.78c1.86,2.91,3.45,6.64,2.1,10.09-1.41,3.62-5.28,3.65-8.52,4.39a.66.66,0,0,0,0,1.27Z" transform="translate(-161.82 -62.57)"/><path class="cls-4" d="M513.16,276.11a8.44,8.44,0,0,0,2.56,5.27,9.39,9.39,0,0,0,5.57,2.48,9.91,9.91,0,0,0,9.78-6.26c.5-1.39-1.79-2.39-2.41-1a7.16,7.16,0,0,1-11.38,3.08,8.7,8.7,0,0,1-2.93-3.88.62.62,0,0,0-1.19.33Z" transform="translate(-161.82 -62.57)"/><path class="cls-4" d="M529.46,278.11a12.24,12.24,0,0,0,.84,1.32,7.43,7.43,0,0,0,1,.93,9.61,9.61,0,0,0,8.52,1.73,8.66,8.66,0,0,0,4.76-3.37c1-1.5,1.89-4,1.18-5.83a1.26,1.26,0,0,0-2.46.34,10.94,10.94,0,0,1,0,2.06,6,6,0,0,1-.84,2,6,6,0,0,1-3.48,2.42,7.57,7.57,0,0,1-4.32-.15,12.28,12.28,0,0,1-2.12-1c-.33-.19-.65-.4-1-.61a12.15,12.15,0,0,1-1.12-.65c-.49-.43-1.4.14-1,.74Z" transform="translate(-161.82 -62.57)"/><path class="cls-4" d="M529,272c.09,1,.24,2,.27,3a11,11,0,0,1,0,1.52A15.25,15.25,0,0,0,529,278c0,.74,1.12,1.12,1.46.39a5.15,5.15,0,0,0,.37-1.79,11.09,11.09,0,0,0,0-1.63,6.71,6.71,0,0,0-.92-3.24c-.24-.39-1-.26-.93.25Z" transform="translate(-161.82 -62.57)"/><path class="cls-4" d="M624.33,163.25a83.72,83.72,0,0,0,1,9.74c.62,3.28,1.4,6.51,2.2,9.75,1.56,6.34,3.09,12.73,3.5,19.26.38,6.16-.17,12.54-2.77,18.21A31.63,31.63,0,0,1,619,231.89a33.24,33.24,0,0,1-15.55,6.47c-1.31.21-1,2.43.31,2.33,10.5-.81,20.32-7.77,25.48-16.8,6.58-11.5,4.68-25.24,1.75-37.53-.89-3.76-1.87-7.5-2.79-11.25-.48-1.94-.9-3.88-1.35-5.82a52.21,52.21,0,0,1-1.25-6c-.09-.77-1.29-.8-1.23,0Z" transform="translate(-161.82 -62.57)"/><path class="cls-4" d="M594.33,142.42a42.44,42.44,0,0,0-5.33-2.27c-1.78-.59-3.57-1.09-5.39-1.52a75.79,75.79,0,0,0-11.5-1.8,72.43,72.43,0,0,0-23.06,1.76.91.91,0,0,0,.49,1.76,76.92,76.92,0,0,1,22.39-1.69,96,96,0,0,1,21.94,4.84c.63.21,1.07-.78.46-1.08Z" transform="translate(-161.82 -62.57)"/><path class="cls-4" d="M588.35,141.25c2.65-1.66,4.95-3.86,7.5-5.67a77.69,77.69,0,0,1,8-5,72.86,72.86,0,0,1,17.53-6.75c2.91-.7,6.15-1.57,9.17-1.41a3.76,3.76,0,0,1,3.39,2,12.13,12.13,0,0,1,.92,4.34c.73,7.4,1.39,14.95.38,22.34a35.59,35.59,0,0,1-8.46,19.22c-1,1.16.59,2.81,1.71,1.71,4.82-4.75,7.56-11.5,8.79-18.05,1.48-7.87.93-15.88.09-23.78-.32-3-.37-6.82-3-8.85s-6.23-1.17-9.17-.65a73.66,73.66,0,0,0-19.4,6.34,69.25,69.25,0,0,0-9.79,5.77c-3,2.16-6.38,4.5-8.55,7.58-.39.55.36,1.24.9.9Z" transform="translate(-161.82 -62.57)"/><path class="cls-4" d="M611.24,154.59a45.27,45.27,0,0,1,6.25-4.12,28.42,28.42,0,0,1,3.31-1.54c1.19-.46,2.43-.76,3.6-1.26a1,1,0,0,0,.72-1.1,1,1,0,0,0-1-.87,21.71,21.71,0,0,0-7.52,2.85,25.59,25.59,0,0,0-6.32,4.82c-.58.61.21,1.78.94,1.22Z" transform="translate(-161.82 -62.57)"/><path class="cls-4" d="M615.29,155.52l4,.48c.65.08,1.3.12,2,.18a4.43,4.43,0,0,0,2.2-.11c.69-.3.54-1.3,0-1.64a4.64,4.64,0,0,0-2.13-.37c-.67,0-1.34-.1-2-.12l-4-.13a.87.87,0,0,0-.86.86.88.88,0,0,0,.86.85Z" transform="translate(-161.82 -62.57)"/><path class="cls-4" d="M618.32,158.65l2.46,1,1.18.47a8.52,8.52,0,0,0,1.3.41,1,1,0,0,0,1.19-.58,1,1,0,0,0-.41-1.25,8.14,8.14,0,0,0-1.42-.62c-.41-.17-.82-.31-1.23-.46l-2.53-.92a1,1,0,0,0-1.25.72,1,1,0,0,0,.71,1.25Z" transform="translate(-161.82 -62.57)"/><path class="cls-4" d="M592.11,277.78c-2.86-.65-6.36-.63-8.06-3.45s-.94-6.18.42-8.89a25.19,25.19,0,0,1,32-11.94c5.59,2.25,10.56,6.81,11.62,12.95a11.51,11.51,0,0,1-2.47,9.62,9.73,9.73,0,0,1-8.34,3.25c-1.57-.2-1.56,2.27,0,2.47a11.84,11.84,0,0,0,9-2.91,13.18,13.18,0,0,0,4.44-9c.63-7.41-4.29-13.89-10.52-17.33a27.84,27.84,0,0,0-37.78,11.06c-1.93,3.62-2.86,8-.73,11.75s6.49,4.52,10.41,3.71a.67.67,0,0,0,0-1.28Z" transform="translate(-161.82 -62.57)"/><path class="cls-4" d="M619.13,274.38a8.75,8.75,0,0,1-2.84,3.8,7.17,7.17,0,0,1-11.48-3c-.6-1.36-2.91-.39-2.41,1a9.9,9.9,0,0,0,9.78,6.26,9.36,9.36,0,0,0,5.57-2.48,8.36,8.36,0,0,0,2.56-5.26.61.61,0,0,0-1.18-.33Z" transform="translate(-161.82 -62.57)"/><path class="cls-4" d="M603.06,276a9.47,9.47,0,0,1-1,.59c-.31.21-.62.43-.95.62a12.37,12.37,0,0,1-2.12,1,7.57,7.57,0,0,1-4.42.18,5.89,5.89,0,0,1-3.42-2.32,6,6,0,0,1-.88-2,11.26,11.26,0,0,1-.07-2.17,1.26,1.26,0,0,0-2.47-.33c-.69,1.76.13,4.24,1.13,5.73a8.56,8.56,0,0,0,4.82,3.47,9.45,9.45,0,0,0,5.83-.24,9,9,0,0,0,2.69-1.5,8,8,0,0,0,1-.92,15.43,15.43,0,0,0,.84-1.32c.43-.6-.47-1.18-1-.75Z" transform="translate(-161.82 -62.57)"/><path class="cls-4" d="M603.55,270.36a6.68,6.68,0,0,0-.92,3.24,9.87,9.87,0,0,0,0,1.63A5.24,5.24,0,0,0,603,277c.34.72,1.47.34,1.47-.4,0-.5-.17-1-.22-1.5a11.08,11.08,0,0,1,0-1.52c0-1,.18-2,.26-3,0-.52-.68-.64-.92-.25Z" transform="translate(-161.82 -62.57)"/><path class="cls-4" d="M618.34,235.9c0,.85-.2,1.68-.19,2.54s.05,1.69.14,2.53a44.91,44.91,0,0,0,.68,4.63c.32,1.55.71,3.09,1.16,4.61s.82,3.35,1.8,4.55a.94.94,0,0,0,1.58-.66c-.06-1.47-.89-3-1.31-4.46s-.82-2.94-1.15-4.44-.64-3-.88-4.48c-.13-.78-.27-1.55-.4-2.33s-.44-1.66-.52-2.49c-.06-.57-.91-.6-.91,0Z" transform="translate(-161.82 -62.57)"/><path class="cls-4" d="M633.05,194.46c9.74-16.21,12.29-36.4,8.69-54.82a78.72,78.72,0,0,0-10.19-26.21c-2.61-4.23-5.83-8.59-5.57-13.81.22-4.57,3.62-7.54,8.07-7.79,9.34-.51,16.57,7.85,20,15.63,4.06,9.14,5.27,19.57,5.95,29.45A146.53,146.53,0,0,1,624.77,241.2c-1.52,1.74-3.09,3.43-4.7,5.1-.85.88.5,2.23,1.35,1.35A147.27,147.27,0,0,0,652.18,199a149.55,149.55,0,0,0,10.13-56.47,143.08,143.08,0,0,0-.95-14.49,105.6,105.6,0,0,0-2.81-15.5c-2.6-9.33-8.42-18.66-17.88-22.16-3.83-1.42-8.58-1.57-12.19.57-4.11,2.44-5.33,7.28-4.54,11.75.92,5.18,4.38,9.43,6.94,13.87a74.4,74.4,0,0,1,6,13.37,81.47,81.47,0,0,1-2,57.29c-.94,2.22-1.89,4.44-3,6.59a.65.65,0,0,0,1.12.65Z" transform="translate(-161.82 -62.57)"/><path class="cls-3" d="M572.76,202.55a22.65,22.65,0,0,1-4.86,4.77,7.71,7.71,0,0,1-6.51,1.16,10.88,10.88,0,0,1-3.34-2.14,19.17,19.17,0,0,1-4.52-5,7.75,7.75,0,0,1-.76-6.5l1.71-1.57a30.5,30.5,0,0,1,16.21,1c1.76.61,3.68,1.63,4.07,3.46S573.91,201.17,572.76,202.55Z" transform="translate(-161.82 -62.57)"/><path class="cls-4" d="M543.06,199.15a14.94,14.94,0,0,0-2.16.35,5.39,5.39,0,0,0-2,1.22,6,6,0,0,0-1.51,4.14,19.86,19.86,0,0,0,2.19,8.77,11.16,11.16,0,0,0,6.52,5.89,12.9,12.9,0,0,0,9.59-1.23,27.74,27.74,0,0,0,8.79-7.77c.75-1-.8-2-1.63-1.26-2.71,2.49-4.94,5.38-8.28,7.11-3.1,1.6-7.06,2.06-10-.06-2.55-1.82-3.79-5.08-4.47-8a10.66,10.66,0,0,1-.3-4.66,3.41,3.41,0,0,1,1.36-2,426.21,426.21,0,0,1,2.25-1.29.59.59,0,0,0-.32-1.14Z" transform="translate(-161.82 -62.57)"/><path class="cls-4" d="M585.43,204.18a10.8,10.8,0,0,1,1.92,1.72,3.45,3.45,0,0,1,.94,2.48,11.93,11.93,0,0,1-1.54,4.87c-1.37,2.7-3.31,5.5-6.28,6.55-3.23,1.14-6.76-.13-9.32-2.21-2.91-2.38-4.47-5.67-6.6-8.67a1,1,0,0,0-1.79,1c2.7,5.72,7.6,11.87,14.35,12.46,6.56.58,10.88-5.49,12.82-11a7.19,7.19,0,0,0,.14-5.22,4.88,4.88,0,0,0-1.61-2,5.7,5.7,0,0,0-1.06-.63c-.45-.21-.93-.24-1.37-.44a.59.59,0,0,0-.6,1Z" transform="translate(-161.82 -62.57)"/><path class="cls-4" d="M557.19,221.35a6.93,6.93,0,0,0,.22.94,5.93,5.93,0,0,0,.5,1,9.83,9.83,0,0,0,1.34,1.74,11.71,11.71,0,0,0,1.66,1.4,9.76,9.76,0,0,0,2,1,1.15,1.15,0,0,0,.61-2.21c-.26-.11.23.1,0,0l-.23-.11-.4-.2-.79-.43c-.27-.17-.54-.34-.79-.53,0,0-.21-.16-.09-.06s-.06,0-.08-.07l-.38-.32a11.06,11.06,0,0,1-1.26-1.3l-.15-.19-.06-.07-.34-.45-.15-.18c.12.15-.24-.3-.14-.19a3.69,3.69,0,0,1-.28-.27.63.63,0,0,0-1.14.48Z" transform="translate(-161.82 -62.57)"/><path class="cls-4" d="M548.11,181.35c0,9.81-13,9.62-12.73-.18C535.41,171.37,548.37,171.56,548.11,181.35Z" transform="translate(-161.82 -62.57)"/><path class="cls-4" d="M595.4,187.19c0,9.81-13,9.62-12.73-.18C582.7,177.21,595.66,177.4,595.4,187.19Z" transform="translate(-161.82 -62.57)"/><path class="cls-4" d="M533.41,169a5.73,5.73,0,0,0,2.52-1.18,24,24,0,0,1,2.44-1.34,18.48,18.48,0,0,1,2.36-.87c.43-.13.87-.24,1.31-.34a9.53,9.53,0,0,0,1.41-.29,1.42,1.42,0,0,0-.38-2.79,6.17,6.17,0,0,0-1.64.26q-.7.16-1.38.39a19,19,0,0,0-2.91,1.21,18,18,0,0,0-2.44,1.51c-.78.58-1.89,1.43-2.05,2.44a.8.8,0,0,0,.76,1Z" transform="translate(-161.82 -62.57)"/><path class="cls-4" d="M596,174.6c.27-1-.78-1.76-1.51-2.25a14.33,14.33,0,0,0-2.19-1.24,17.08,17.08,0,0,0-5.21-1.54,1.47,1.47,0,0,0-1.45,1.28,1.48,1.48,0,0,0,1.05,1.63c.79.21,1.6.34,2.38.56a20.32,20.32,0,0,1,2.31.8c-.14-.06,0,0,.05,0l.27.11.73.31.14.05h0l.26.12.53.25a4.66,4.66,0,0,0,1.45.52c.45,0,1.06-.12,1.19-.63Z" transform="translate(-161.82 -62.57)"/><path class="cls-4" d="M519.57,232.89a14.93,14.93,0,0,0-4.68,5.5,21.21,21.21,0,0,0-1.44,3.32,10.69,10.69,0,0,0-.83,3.71,1,1,0,0,0,2,.27c.41-1,.52-2.17.86-3.22a22.75,22.75,0,0,1,1.29-3.1,49.47,49.47,0,0,1,3.62-5.67.59.59,0,0,0-.81-.81Z" transform="translate(-161.82 -62.57)"/><path class="cls-4" d="M518.21,241.42a14.16,14.16,0,0,0-1.62,2.08,11.33,11.33,0,0,0-1,2.58,11.5,11.5,0,0,0-.19,5.53,1.14,1.14,0,0,0,1.38.78,1.16,1.16,0,0,0,.78-1.38,13.3,13.3,0,0,1,.08-4.45,14.26,14.26,0,0,1,.63-2.21,10,10,0,0,1,1-2.17c.38-.59-.52-1.31-1-.76Z" transform="translate(-161.82 -62.57)"/></g></svg>